<?xml version="1.0" encoding="utf-8"?>
<!-- Generator: Adobe Illustrator 27.0.0, SVG Export Plug-In . SVG Version: 6.00 Build 0)  -->
<svg version="1.1" id="logo-1" xmlns="http://www.w3.org/2000/svg" xmlns:xlink="http://www.w3.org/1999/xlink" x="0px" y="0px"
	 viewBox="0 0 132 40" style="enable-background:new 0 0 132 40;" xml:space="preserve">
<g id="DgM3Es.tif">
	<g>
		<path d="M30.1,0.7c0,3.6,0,7.3,0,10.9c0,1.1,0,2.1,0,3.2c0,0.1,0,0.1,0,0.2c-4-2.4-8-4.8-12-7.2c0.6-0.4,1.2-0.7,1.7-1
			c1.8-1.1,3.5-2.1,5.3-3.2C26.8,2.7,28.4,1.7,30.1,0.7C30,0.7,30.1,0.7,30.1,0.7C30.1,0.7,30.1,0.7,30.1,0.7z"/>
		<path d="M31,0.7c0.3,0.3,0.7,0.5,1.1,0.7c2.3,1.4,4.5,2.7,6.8,4.1c1.3,0.8,2.6,1.6,4,2.4c0,0,0.1,0,0.1,0.1c-4,2.4-8,4.8-12,7.2
			C31,10.3,31,5.5,31,0.7C31,0.7,31,0.7,31,0.7z"/>
		<path d="M30.1,31.3c-4-2.4-8-4.8-12-7.2c4-2.4,8-4.8,12-7.2C30.1,21.7,30.1,26.5,30.1,31.3z"/>
		<path d="M16.5,23.1c-4-2.4-8-4.8-12-7.2c4-2.4,8-4.8,12-7.2C16.5,13.6,16.5,18.3,16.5,23.1z"/>
		<path d="M29.5,16c-4,2.4-8,4.8-12,7.2c0-4.8,0-9.6,0-14.3C21.5,11.2,25.5,13.6,29.5,16z"/>
		<path d="M29.5,32.1c-0.6,0.4-1.2,0.7-1.9,1.1c-1.7,1-3.3,2-5,3c-1.6,1-3.2,1.9-4.8,2.9c0,0-0.1,0.1-0.2,0.1c-0.1,0-0.2,0-0.2-0.2
			c0-0.5,0-1.1,0-1.6c0-4.1,0-8.1,0-12.2c0-0.1,0-0.2,0-0.3C21.5,27.3,25.5,29.7,29.5,32.1z"/>
		<path d="M47.3,26.5c0,0.8,0,1.5,0,2.3c0,0.5-0.2,0.9-0.7,1c-1,0.3-2.1,0.5-3.2,0.6c-1,0.1-1.9,0-2.9-0.2c-1.4-0.4-2.4-1.2-3.1-2.5
			c-0.5-1-0.8-2.1-0.9-3.2c-0.1-1-0.1-2.1,0-3.1c0.2-1.3,0.6-2.5,1.4-3.5c0.8-1,1.9-1.6,3.3-1.8c1.7-0.2,3.4,0,5,0.6
			c0.5,0.2,0.7,0.5,0.7,1c0,0.2,0,0.5,0,0.7c0,0.6-0.3,0.8-0.9,0.7c-0.5-0.1-0.9-0.3-1.4-0.4c-0.7-0.2-1.5-0.3-2.3-0.3
			c-1.5,0-2.6,0.8-3.1,2.2c-0.4,1.1-0.5,2.3-0.4,3.5c0,0.8,0.2,1.6,0.6,2.3c0.5,1.1,1.5,1.7,2.7,1.8c0.7,0.1,1.3,0.1,2,0
			c0.5,0,0.9-0.5,0.9-1c0-0.6,0-1.1,0-1.7c0-0.5-0.5-1-1-1c-0.4,0-0.8,0-1.2,0c-0.6,0-0.8-0.3-0.9-0.8c0-0.2,0-0.4,0-0.6
			c0-0.6,0.5-0.9,1-0.9c0.7,0,1.3,0,2,0c1.4,0,2.4,1,2.4,2.4C47.3,25.1,47.3,25.8,47.3,26.5z"/>
		<path d="M53.1,23.6c0-1.7,0-3.3,0-5c0-0.3,0-0.6,0.1-0.9c0.3-0.8,0.8-1.1,1.6-1.2c0.2,0,0.5,0,0.7,0c1.8,0,3.6,0,5.5,0
			c1,0,1.7,0.8,1.5,1.8c-0.1,0.3-0.3,0.5-0.6,0.6c-0.1,0-0.2,0-0.3,0c-1.5,0-3,0-4.6,0c-0.8,0-1.4,0.5-1.5,1.2
			c-0.1,0.8,0.1,1.5,0.9,1.8c0.2,0.1,0.4,0.1,0.5,0.1c0.7,0,1.4,0,2.1,0c0.9,0,1.6,0.9,1.4,1.8c-0.1,0.3-0.3,0.6-0.7,0.6
			c-0.7,0-1.4,0-2.1,0c-0.3,0-0.6,0-0.9,0c-0.7,0.1-1.2,0.5-1.3,1.2c-0.1,0.5-0.1,0.9,0,1.4c0.1,0.7,0.7,1.2,1.4,1.2
			c1.4,0,2.7,0,4.1,0c0.9,0,1.6,0.8,1.4,1.7c-0.1,0.4-0.3,0.7-0.7,0.7c-0.1,0-0.2,0-0.3,0c-2.1,0-4.1,0-6.2,0c-0.4,0-0.7,0-1-0.2
			c-0.7-0.3-1.1-0.8-1.1-1.7C53.1,27,53.1,25.3,53.1,23.6z"/>
		<path d="M105.4,30.8c-1.1,0-2.3-0.2-3.6-0.5c-0.5-0.1-0.9-0.5-1-1.1c-0.1-0.3-0.1-0.7,0-1c0.1-0.4,0.3-0.6,0.7-0.5
			c0.5,0.1,1,0.3,1.6,0.4c1.3,0.2,2.5,0.4,3.8,0.1c0.5-0.1,1-0.3,1.4-0.8c0.6-0.9,0.3-2-0.7-2.6c-0.5-0.3-1-0.4-1.6-0.4
			c-1-0.1-2-0.2-3-0.5c-1-0.4-1.8-1-2.3-2c-0.3-0.6-0.3-1.3-0.2-1.9c0-0.9,0.3-1.7,0.9-2.4c0.6-0.6,1.4-1,2.2-1.1
			c2-0.4,3.9-0.1,5.8,0.5c0.5,0.2,0.8,0.6,0.9,1.1c0,0.2,0,0.3,0,0.5c0,0.5-0.4,0.8-0.9,0.7c-0.7-0.1-1.3-0.3-1.9-0.5
			c-1.1-0.2-2.2-0.3-3.3-0.1c-1.2,0.2-1.4,1.1-1.2,2.1c0.1,0.4,0.4,0.7,0.8,0.9c0.4,0.2,0.9,0.3,1.4,0.3c1,0.1,2,0.2,3,0.5
			c1.1,0.3,1.9,0.9,2.4,2c0.4,0.7,0.4,1.5,0.3,2.2c0,0.6-0.1,1.2-0.4,1.7c-0.4,1-1.3,1.6-2.3,2C107.4,30.7,106.5,30.8,105.4,30.8z"
			/>
		<path d="M86.5,23c0.3-0.7,0.8-1.2,1.3-1.7c1.3-1.5,2.5-2.9,3.8-4.4c0.3-0.3,0.6-0.5,1-0.5c0.3,0,0.6,0,1,0c0.6,0,0.8,0.4,0.6,0.9
			c-0.1,0.2-0.3,0.4-0.4,0.5c-1.4,1.5-2.7,3.1-4.1,4.6c-0.5,0.6-0.5,1.2,0.1,1.7c1.7,1.7,3.4,3.3,5.1,5c0.1,0.1,0.2,0.2,0.3,0.3
			c0.3,0.4,0.1,0.9-0.4,0.9c-0.5,0.1-1,0-1.6,0c-0.3,0-0.5-0.2-0.6-0.3c-1.5-1.5-3-3.1-4.5-4.7c-0.2-0.2-0.4-0.5-0.7-0.7
			c-0.3-0.3-0.6-0.6-0.8-1c0,0.1,0,0.1,0,0.2c0,1.7,0,3.5,0,5.2c0,0.6-0.4,1.1-1,1.2c-0.6,0.1-1.2-0.2-1.4-0.8
			c0-0.1-0.1-0.3-0.1-0.4c0-4,0-8,0-12c0-0.6,0.3-0.9,0.9-0.9c0.2,0,0.4,0,0.5,0c0.6,0.1,0.9,0.6,0.9,1.2c0,1.7,0,3.4,0,5.1
			C86.5,22.9,86.5,22.9,86.5,23z"/>
		<path d="M74,30.6c-1.1,0-2.2,0-3.3,0c-0.6,0-1.2-0.2-1.6-0.8c-0.2-0.3-0.3-0.7-0.3-1.1c0-1.7,0-3.4,0-5.1c0-0.9,0.6-1.5,1.5-1.5
			c1.5,0,3,0,4.5,0c0.9,0,1.6,0.8,1.4,1.7c-0.1,0.4-0.3,0.7-0.8,0.7c-0.9,0-1.8,0-2.6,0c-0.4,0-0.7,0.1-1,0.3
			c-0.3,0.3-0.5,0.6-0.5,1c0,0.4-0.1,0.9,0,1.3c0.1,0.6,0.7,1.1,1.4,1.1c1.4,0,2.7,0,4.1,0c1,0,1.6,0.7,1.5,1.6
			c0,0.4-0.3,0.7-0.7,0.7c-0.1,0-0.2,0-0.3,0C76.1,30.6,75,30.6,74,30.6C74,30.6,74,30.6,74,30.6z"/>
		<path d="M122.5,27.3c0-0.7,0-1.5,0-2.2c0-0.2-0.1-0.4-0.2-0.6c-1.5-2.2-3.1-4.5-4.6-6.7c-0.1-0.1-0.2-0.2-0.2-0.3
			c-0.2-0.5,0-1,0.6-1c0.4,0,0.9,0,1.3,0c0.3,0,0.5,0.2,0.7,0.4c1.1,1.6,2.3,3.2,3.4,4.9c0.3,0.5,0.8,0.9,1.2,1.3
			c0.1,0.1,0.2,0.3,0.4,0.4c0.3,0.3,0.3,0.7,0.1,1c-0.1,0.2-0.2,0.4-0.2,0.7c0,1.5,0,2.9,0,4.4c0,0.6-0.3,0.9-0.9,0.9
			c-0.2,0-0.3,0-0.5,0c-0.6,0-1-0.4-1-1C122.5,28.8,122.5,28.1,122.5,27.3z"/>
		<path d="M73.2,18.9c-1.4,0-2.8,0-4.1,0c-0.2,0-0.3-0.1-0.2-0.3c0-0.2,0-0.5,0.1-0.7c0.2-0.8,0.8-1.3,1.7-1.4c0.2,0,0.4,0,0.7,0
			c1.8,0,3.6,0,5.5,0c0.9,0,1.5,0.6,1.5,1.5c0,0.5-0.3,0.8-0.8,0.8C76,18.9,74.6,18.9,73.2,18.9z"/>
		<path d="M125.9,22.9c-0.1,0-0.3-0.1-0.5-0.2c-0.3-0.3-0.7-0.7-1-1c-0.1-0.1-0.1-0.1,0-0.2c1.2-1.7,2.4-3.4,3.5-5.1
			c0.1-0.2,0.3-0.3,0.6-0.4c0.4,0,0.9,0,1.3,0c0.7,0,0.9,0.6,0.5,1.1c-0.4,0.5-0.7,1.1-1.1,1.6c-0.9,1.3-1.7,2.6-2.6,3.8
			C126.5,22.7,126.3,22.9,125.9,22.9z"/>
	</g>
</g>
</svg>
