<?xml version="1.0" encoding="utf-8"?>
<!-- Generator: Adobe Illustrator 27.0.0, SVG Export Plug-In . SVG Version: 6.00 Build 0)  -->
<svg version="1.1" id="logo-8" xmlns="http://www.w3.org/2000/svg" xmlns:xlink="http://www.w3.org/1999/xlink" x="0px" y="0px"
	 viewBox="0 0 140 30" style="enable-background:new 0 0 140 30;" xml:space="preserve">
<style type="text/css">
	.st0{fill:#111111;}
	.st1{fill-rule:evenodd;clip-rule:evenodd;}
</style>
<g>
	<polygon points="29.5,14.7 33.5,18.9 24.6,18.9 	"/>
	<polygon class="st0" points="24.8,18.9 26.9,18.9 29.5,14.7 	"/>
	<polygon points="14.5,30 4.1,19.2 16.3,19.2 	"/>
	<polygon class="st0" points="16.7,19.2 13.1,19.2 14.5,30 	"/>
	<g>
		<path class="st1" d="M99.6,8.1c1.4,0,2.8,0,4.2,0c0,1.5,0,3.3,0,4.8c0.8,0,4.4,0,5.3,0c0,0.9,0,1.8,0,2.7c-1,0-4.3,0-5.3,0
			c0,3.1,0.1,6.9,0.1,9.7c0,0.2,0.2,0.4,0.3,0.6c0.4,0.7,1.5,0.7,2.7,0.6c0.1,1.2,0.1,1.8,0.2,2.8c-4.9,1.4-7.6-1.4-7.6-3.8
			C99.6,22.8,99.6,9.7,99.6,8.1z"/>
		<path class="st1" d="M51.2,22.5c-3.9,0-7.7,0-11.6,0c0.8,4.8,5.8,4.2,10.2,3.3c0.3,1.1,0.4,1.9,0.7,3c-8.3,2.5-15.4-0.7-14.9-8.5
			c0.3-4.8,3.7-7.7,8-7.8c3.7-0.1,7.4,2.6,7.6,6.7C51.2,20.2,51.2,21.4,51.2,22.5z M39.6,19.5c2.5,0,5.3,0,7.8,0
			C47.3,14.4,39.5,14.7,39.6,19.5z"/>
		<path class="st1" d="M67.8,29.4c-1.4,0-2.6,0-4,0c0-3.1,0-7,0-10c0-1.3-1.3-3.8-3.2-3.4c-1.6,0.3-3.8,1.4-4,3.8
			c-0.1,2.9-0.1,6.8-0.1,9.6c-1.4,0-2.4,0-3.8,0c0-5.5,0-11,0-16.6c1.3,0,2.5,0,3.9,0c0,0.7,0,1.6,0,2.3c1.4-0.9,3.7-3.3,7.6-2.5
			c2.4,0.8,3.5,3.2,3.5,6.2C67.8,22.2,67.8,26.1,67.8,29.4z"/>
		<path class="st1" d="M84.2,29.4c-1.3,0-2.7,0-4,0c0-0.4,0-1.3,0-1.7c-1.9,2.4-5.6,2.5-8.1,1.1c-2.7-1.5-3.2-5.4-1.1-7.7
			c1.7-1.8,5.2-1.2,9.1-1.3c0.7-5.6-5.6-3.9-9.2-3.8c-0.1-1.3-0.1-1.7-0.1-2.9c4.6-0.7,9.8-1.5,12.2,1.6c0.7,1,1.4,2.1,1.4,3.4
			C84.2,21.4,84.2,25.5,84.2,29.4z M74.2,26c2.2,1.7,6.6,0.4,5.9-3.2C76.9,22.6,72.6,22.3,74.2,26z"/>
		<path class="st1" d="M98.8,13.1c-0.1,1.1-0.3,2-0.5,3c-6.2-1.6-9.1,2-8.8,5.6c0.3,3.3,3.5,6,8.6,4.3c0.2,0.8,0.6,1.8,0.7,2.7
			c-6.5,3-12.9-0.8-13.4-6.8C84.9,15.1,90.7,10.9,98.8,13.1z"/>
		<path class="st1" d="M138.3,13.4c-0.2,1.3-0.3,1.7-0.5,2.9c-2.1-0.3-8.1-1.8-8,0.5c0.2,3.3,11.3,2.9,8.9,9.5
			c-1.5,4-9.2,4-13.4,1.7c0.2-0.9,0.3-1.6,0.8-2.7c2.3,0.5,8.8,2.4,8.8-0.5c0-2.2-6.9-3-8.3-5.1C123.1,14.3,130.3,10.7,138.3,13.4z"
			/>
	</g>
	<polygon points="14.7,0 14.5,30 29.5,14.7 	"/>
</g>
<g>
	<g>
		<path d="M111.5,17.5c-0.1-2.2,1.8-4.6,4.6-4.6c2.5,0,4.5,2.1,4.6,4.6c0,2.4-2,4.9-5,4.7C113.7,22,111.4,20.3,111.5,17.5z"/>
		<path d="M123.9,20.1V22c0,0.1,0,0.3,0,0.4c0,0.1,0,0.2,0,0.3c-0.1,0.9-0.4,1.8-0.8,2.6c-0.3,0.7-0.7,1.2-1.2,1.7
			c-0.1,0.1-0.1,0.1-0.2,0.2c-0.1,0.1-0.2,0.2-0.3,0.3c0,0-0.1,0-0.1,0.1c-0.6,0.5-1.2,0.8-1.9,1.2c-0.6,0.3-1.2,0.4-1.9,0.6
			c0,0,0,0,0,0c0,0,0,0,0,0c0,0,0,0,0,0c0,0,0,0,0,0c0,0,0,0-0.1,0c0,0,0,0-0.1,0c0,0,0,0-0.1,0c0,0,0,0,0,0c0,0,0,0,0,0
			c0,0-0.1,0-0.1-0.1c0-1.1,0-2.2,0-3.3c0-0.1,0-0.1,0.1-0.2c0,0,0.1,0,0.2,0h0c0,0,0,0,0,0c0.1,0,0.2,0,0.2,0c0,0,0,0,0,0
			c0.6-0.1,1.2-0.3,1.7-0.6c0.8-0.5,1.4-1.2,1.9-2c0-0.1,0.1-0.1,0.1-0.2c0.1-0.2,0.2-0.3,0.2-0.5c0.1-0.2,0.2-0.4,0.2-0.6
			c0.1-0.3,0.2-0.6,0.2-0.8c0,0,0,0,0,0c0,0,0,0,0-0.1c0,0,0,0,0,0c-0.2,0.2-0.4,0.4-0.7,0.6c-0.8,0.6-1.7,1-2.7,1.2
			c0.6-0.3,1.1-0.7,1.6-1.1c0.6-0.5,1-1.2,1.2-2c0-0.1,0.1-0.1,0.2-0.1c0.7,0,1.4,0,2,0c0.1,0,0.1,0,0.1,0.1
			C123.9,19.7,123.9,19.9,123.9,20.1C123.9,20.1,123.9,20.1,123.9,20.1z"/>
		<path d="M113.6,22.7c-1.3-0.2-2.5-0.8-3.4-1.8c0.4,1.5,0.9,3,2.2,4c0.8,0.6,1.6,0.9,2.6,1c0.1,0,0.1,0,0.1,0.1c0,1.1,0,2.2,0,3.3
			c0,0.1,0,0.2-0.1,0.1c-1.2-0.3-2.4-0.6-3.5-1.3c-1.3-0.9-2.2-2.1-2.7-3.6c-0.4-1.2-0.6-2.4-0.6-3.7c0-0.4,0.1-0.8,0.1-1.2
			c0-0.1,0.1-0.2,0.2-0.2c0.7,0,1.3,0,2,0c0.1,0,0.1,0,0.1,0.1c0.3,1,0.9,1.8,1.7,2.4C112.8,22.2,113.2,22.4,113.6,22.7z"/>
		<path d="M122.7,18.5c-0.3,0-0.6,0-0.9,0c-0.1,0-0.2,0-0.2-0.2c0.1-1,0-2-0.4-2.9c-0.4-1-1-1.9-2-2.4c-0.1-0.1-0.2-0.1-0.2-0.3
			c0-1.1,0-2.2,0-3.3c0-0.1,0-0.2,0.2-0.1c1.4,0.8,2.5,1.7,3.4,3c0.7,1.1,1.1,2.4,1.2,3.7c0.1,0.7,0.1,1.5,0,2.2
			c0,0.1,0,0.1-0.2,0.1C123.3,18.5,123,18.5,122.7,18.5C122.7,18.5,122.7,18.5,122.7,18.5z"/>
		<path d="M112.8,11.2c0,0.5,0,1.1,0,1.6c0,0.1,0,0.2-0.2,0.3c-1.4,0.8-2,2.1-2.2,3.6c0,0.5,0,1,0,1.4c0,0.1,0,0.2-0.2,0.2
			c-0.6,0-1.3,0-1.9,0c-0.1,0-0.2,0-0.2-0.2c0-0.8-0.1-1.6,0-2.4c0.2-1.7,0.7-3.2,1.8-4.5c0.6-0.8,1.4-1.3,2.3-1.8
			c0.4-0.2,0.4-0.2,0.4,0.2C112.8,10.2,112.8,10.7,112.8,11.2z"/>
		<path d="M114.6,25.8c0,0,1.5,0.2,3,0l-0.2,3.6c0,0-1.2,0.3-2.8,0V25.8z"/>
	</g>
	<path d="M123.9,20.1v9.4h-2.6v-5.6c0.1-0.2,0.2-0.5,0.2-0.7c0.1-0.3,0.2-0.6,0.2-0.9c0.1-0.4,0.2-0.8,0.2-1.1c0,0,0,0,0-0.1
		c0-0.1,0-0.1,0-0.2c0,0,0,0,0,0c0,0,0,0,0,0c0,0,0,0,0-0.1c0,0,0,0,0,0c-0.2,0.2-0.4,0.4-0.7,0.6V21c0.1-0.3,0.2-0.6,0.3-0.9H123.9
		z"/>
</g>
</svg>
