<?xml version="1.0" encoding="utf-8"?>
<!-- Generator: Adobe Illustrator 27.0.0, SVG Export Plug-In . SVG Version: 6.00 Build 0)  -->
<svg version="1.1" id="logo-8" xmlns="http://www.w3.org/2000/svg" xmlns:xlink="http://www.w3.org/1999/xlink" x="0px" y="0px"
	 viewBox="0 0 140 30" style="enable-background:new 0 0 140 30;" xml:space="preserve">
<style type="text/css">
	.st0{fill-rule:evenodd;clip-rule:evenodd;}
</style>
<g>
	<g>
		<path class="st0" d="M86.6,0c1.9,0,3.7,0,5.7,0c0,2.1,0,4.6,0,6.6c1.1,0,6,0,7.2,0c0,1.2,0,2.5,0,3.7c-1.3,0-5.8,0-7.2,0
			c0,4.3,0.1,9.6,0.1,13.5c0,0.3,0.3,0.5,0.4,0.8c0.5,0.9,2,0.9,3.6,0.8c0.1,1.7,0.1,2.5,0.3,3.8c-6.7,2-10.3-2-10.3-5.3
			C86.6,20.5,86.6,2.2,86.6,0z"/>
		<path class="st0" d="M21.1,20c-5.3,0-10.4,0-15.7,0c1.1,6.6,7.9,5.8,13.8,4.6c0.4,1.6,0.5,2.6,0.9,4.2c-11.1,3.4-20.8-1-20-11.8
			C0.4,10.3,5,6.2,10.8,6.1c5-0.1,10,3.6,10.3,9.3C21.1,16.8,21.1,18.5,21.1,20z M5.4,15.8c3.3,0,7.2,0,10.5,0
			C15.8,8.7,5.3,9.1,5.4,15.8z"/>
		<path class="st0" d="M43.6,29.6c-1.9,0-3.5,0-5.4,0c0-4.3,0-9.8,0-13.9c0-1.8-1.7-5.3-4.4-4.7c-2.1,0.4-5.2,2-5.4,5.3
			c-0.1,4-0.1,9.4-0.1,13.3c-1.9,0-3.2,0-5.2,0c0-7.7,0-15.3,0-23.1c1.7,0,3.3,0,5.3,0c0,0.9,0,2.2,0,3.2c1.8-1.2,5-4.6,10.2-3.5
			c3.2,1.1,4.8,4.5,4.8,8.6C43.6,19.6,43.6,25,43.6,29.6z"/>
		<path class="st0" d="M65.7,29.6c-1.7,0-3.6,0-5.4,0c0-0.5,0-1.8,0-2.4c-2.5,3.3-7.6,3.4-10.9,1.6c-3.6-2.1-4.4-7.5-1.5-10.7
			c2.3-2.5,7.1-1.7,12.4-1.8c0.9-7.8-7.6-5.4-12.5-5.3c-0.1-1.8-0.1-2.4-0.1-4C53.9,6,61,4.9,64.2,9.1c0.9,1.3,1.9,2.9,1.9,4.7
			C65.7,18.5,65.7,24.2,65.7,29.6z M52.3,24.8c2.9,2.4,8.9,0.5,8-4.5C55.9,20.1,50,19.7,52.3,24.8z"/>
		<path class="st0" d="M85.5,7c-0.1,1.6-0.4,2.8-0.7,4.2c-8.4-2.2-12.4,2.8-11.9,7.8c0.4,4.6,4.8,8.3,11.6,5.9
			c0.3,1.1,0.8,2.5,0.9,3.7c-8.8,4.2-17.4-1.1-18.1-9.4C66.8,9.8,74.5,3.9,85.5,7z"/>
		<path class="st0" d="M139,7.4c-0.3,1.8-0.4,2.4-0.7,4c-2.8-0.4-10.9-2.5-10.8,0.7c0.3,4.6,15.3,4,12,13.2
			c-2,5.5-12.5,5.5-18.1,2.4c0.3-1.2,0.4-2.2,1.1-3.7c3.1,0.7,11.9,3.3,11.9-0.7c0-3-9.3-4.2-11.2-7.1C118.4,8.6,128.2,3.6,139,7.4z
			"/>
	</g>
</g>
<g>
	<g>
		<path d="M102.7,13.1c-0.1-3,2.4-6.3,6.2-6.3c3.3,0,6.1,2.9,6.2,6.3c0,3.3-2.7,6.9-6.8,6.5C105.7,19.3,102.6,16.9,102.7,13.1z"/>
		<path d="M119.5,16.6v2.6c0,0.1,0,0.4,0,0.5c0,0.1,0,0.3,0,0.4c-0.1,1.2-0.5,2.5-1.1,3.6c-0.4,0.9-0.9,1.7-1.6,2.4
			c-0.1,0.1-0.1,0.1-0.3,0.3c-0.1,0.1-0.3,0.3-0.4,0.4c0,0-0.1,0-0.1,0.1c-0.8,0.7-1.6,1.1-2.5,1.7c-0.8,0.4-1.6,0.5-2.5,0.8l0,0
			l0,0l0,0l0,0c0,0,0,0-0.1,0c0,0,0,0-0.1,0c0,0,0,0-0.1,0l0,0l0,0c0,0-0.1,0-0.1-0.1c0-1.6,0-3,0-4.6c0-0.1,0-0.1,0.1-0.3
			c0,0,0.1,0,0.3,0l0,0l0,0c0.1,0,0.3,0,0.3,0l0,0c0.8-0.1,1.6-0.4,2.3-0.8c1.1-0.7,1.9-1.7,2.5-2.8c0-0.1,0.1-0.1,0.1-0.3
			c0.1-0.3,0.3-0.4,0.3-0.7c0.1-0.3,0.3-0.5,0.3-0.8c0.1-0.4,0.3-0.8,0.3-1.1l0,0c0,0,0,0,0-0.1l0,0c-0.3,0.3-0.5,0.5-0.9,0.8
			c-1.1,0.8-2.3,1.3-3.6,1.7c0.8-0.4,1.5-0.9,2.1-1.6c0.8-0.7,1.3-1.7,1.6-2.8c0-0.1,0.1-0.1,0.3-0.1c0.9,0,1.9,0,2.7,0
			c0.1,0,0.1,0,0.1,0.1C119.5,16.1,119.5,16.4,119.5,16.6L119.5,16.6z"/>
		<path d="M105.5,20.2c-1.7-0.3-3.3-1.1-4.6-2.5c0.5,2.1,1.2,4.2,2.9,5.5c1.1,0.8,2.1,1.2,3.5,1.3c0.1,0,0.1,0,0.1,0.1
			c0,1.6,0,3,0,4.6c0,0.1,0,0.3-0.1,0.1c-1.6-0.4-3.2-0.8-4.8-1.8c-1.7-1.2-2.9-2.9-3.6-5c-0.5-1.7-0.8-3.3-0.8-5.1
			c0-0.5,0.1-1.1,0.1-1.7c0-0.1,0.1-0.3,0.3-0.3c0.9,0,1.7,0,2.7,0c0.1,0,0.1,0,0.1,0.1c0.4,1.3,1.2,2.5,2.3,3.3
			C104.5,19.6,105,19.8,105.5,20.2z"/>
		<path d="M117.9,14.4c-0.4,0-0.8,0-1.2,0c-0.1,0-0.3,0-0.3-0.3c0.1-1.3,0-2.8-0.5-4c-0.5-1.3-1.3-2.6-2.7-3.3
			c-0.1-0.1-0.3-0.1-0.3-0.4c0-1.6,0-3,0-4.6c0-0.1,0-0.3,0.3-0.1c1.9,1.1,3.3,2.4,4.6,4.2c0.9,1.6,1.5,3.3,1.6,5.1
			c0.1,0.9,0.1,2.1,0,3c0,0.1,0,0.1-0.3,0.1C118.7,14.4,118.3,14.4,117.9,14.4L117.9,14.4z"/>
		<path d="M104.5,4.4c0,0.7,0,1.6,0,2.2c0,0.1,0,0.3-0.3,0.4c-1.9,1.1-2.7,2.9-2.9,5c0,0.7,0,1.3,0,2c0,0.1,0,0.3-0.3,0.3
			c-0.8,0-1.7,0-2.5,0c-0.1,0-0.3,0-0.3-0.3c0-1.1-0.1-2.2,0-3.3c0.3-2.4,0.9-4.5,2.4-6.2c0.8-1.1,1.9-1.8,3.1-2.5
			c0.5-0.3,0.5-0.3,0.5,0.3C104.5,2.9,104.5,3.6,104.5,4.4z"/>
		<path d="M106.9,24.6c0,0,2,0.3,4,0l-0.3,5c0,0-1.6,0.4-3.7,0V24.6z"/>
	</g>
	<path d="M119.5,16.6v13.1H116v-7.8c0.1-0.3,0.3-0.7,0.3-0.9c0.1-0.4,0.3-0.8,0.3-1.2c0.1-0.5,0.3-1.1,0.3-1.6c0,0,0,0,0-0.1
		s0-0.1,0-0.3l0,0l0,0c0,0,0,0,0-0.1l0,0c-0.3,0.3-0.5,0.5-0.9,0.8V18c0.1-0.4,0.3-0.8,0.4-1.2h3.1V16.6z"/>
</g>
</svg>
