<?xml version="1.0" encoding="utf-8"?>
<!-- Generator: Adobe Illustrator 27.0.0, SVG Export Plug-In . SVG Version: 6.00 Build 0)  -->
<svg version="1.1" id="logo-2" xmlns="http://www.w3.org/2000/svg" xmlns:xlink="http://www.w3.org/1999/xlink" x="0px" y="0px"
	 viewBox="0 0 134 34" style="enable-background:new 0 0 134 34;" xml:space="preserve">
<style type="text/css">
	.st0{display:none;}
</style>
<path class="st0" d="M15.4,6.6V2.4H2v29.2h13.4v-4.2c-2.7,0-5.4-1.1-7.3-3c-1.9-1.9-3-4.6-3-7.3s1.1-5.4,3-7.3
	C10.1,7.7,12.7,6.6,15.4,6.6L15.4,6.6z"/>
<path class="st0" d="M15.4,6.6v20.7c2.7,0,5.4-1.1,7.3-3s3-4.6,3-7.3s-1.1-5.4-3-7.3C20.8,7.7,18.2,6.6,15.4,6.6L15.4,6.6z"/>
<path class="st0" d="M33.3,9.2h3v14.5h-3V9.2z"/>
<path class="st0" d="M38,18.8c0-1,0.3-2.1,0.9-2.9c0.6-0.9,1.4-1.5,2.4-1.9c1-0.4,2-0.5,3-0.3s2,0.7,2.7,1.4
	c0.7,0.7,1.2,1.7,1.4,2.7c0.2,1,0.1,2.1-0.3,3c-0.4,1-1.1,1.8-1.9,2.3c-0.9,0.6-1.9,0.9-2.9,0.9c-0.7,0-1.4-0.1-2-0.4
	c-0.6-0.3-1.2-0.6-1.7-1.1c-0.5-0.5-0.9-1.1-1.1-1.7C38.1,20.1,38,19.4,38,18.8z M45.5,18.8c0-0.4-0.2-0.9-0.4-1.2
	c-0.3-0.4-0.6-0.6-1-0.8c-0.4-0.2-0.9-0.2-1.3-0.1c-0.4,0.1-0.8,0.3-1.2,0.6c-0.3,0.3-0.5,0.7-0.6,1.2c-0.1,0.4,0,0.9,0.1,1.3
	c0.2,0.4,0.5,0.8,0.8,1c0.4,0.2,0.8,0.4,1.3,0.4c0.3,0,0.6-0.1,0.9-0.2c0.3-0.1,0.5-0.3,0.7-0.5c0.2-0.2,0.4-0.5,0.5-0.8
	C45.5,19.4,45.5,19.1,45.5,18.8L45.5,18.8z"/>
<path class="st0" d="M60.3,13.8v9.4c0,3.3-2.6,4.7-5.2,4.7c-0.9,0.1-1.9-0.1-2.7-0.5c-0.8-0.4-1.5-1.1-2-1.9l2.5-1.5
	c0.2,0.4,0.5,0.8,0.9,1c0.4,0.2,0.9,0.3,1.3,0.3c0.3,0,0.6,0,0.9-0.1c0.3-0.1,0.5-0.2,0.8-0.4c0.2-0.2,0.4-0.4,0.5-0.7
	c0.1-0.3,0.2-0.6,0.1-0.9v-0.9c-0.3,0.4-0.8,0.8-1.3,1c-0.5,0.2-1,0.3-1.6,0.3c-1.3,0-2.6-0.5-3.5-1.5c-0.9-0.9-1.5-2.2-1.5-3.5
	S50.1,16,51,15c0.9-0.9,2.2-1.5,3.5-1.5c0.5,0,1.1,0.1,1.6,0.3c0.5,0.2,0.9,0.6,1.3,1v-1L60.3,13.8z M57.4,18.5c0-0.5-0.1-1-0.4-1.4
	c-0.3-0.4-0.6-0.7-1.1-0.9c-0.4-0.2-0.9-0.3-1.4-0.2c-0.5,0.1-0.9,0.3-1.3,0.6c-0.3,0.3-0.6,0.8-0.7,1.2c-0.1,0.5-0.1,1,0.1,1.4
	c0.2,0.4,0.5,0.8,0.9,1.1c0.4,0.3,0.9,0.4,1.3,0.4c0.3,0,0.6,0,0.9-0.1c0.3-0.1,0.6-0.3,0.8-0.5c0.2-0.2,0.4-0.5,0.5-0.8
	C57.4,19.2,57.4,18.9,57.4,18.5z"/>
<path class="st0" d="M62,18.8c0-1,0.3-2.1,0.9-2.9c0.6-0.9,1.4-1.5,2.4-1.9c1-0.4,2-0.5,3-0.3c1,0.2,2,0.7,2.7,1.4
	c0.7,0.7,1.2,1.7,1.4,2.7c0.2,1,0.1,2.1-0.3,3c-0.4,1-1.1,1.8-1.9,2.4c-0.9,0.6-1.9,0.9-2.9,0.9c-0.7,0-1.4-0.1-2-0.4
	c-0.6-0.3-1.2-0.6-1.7-1.1c-0.5-0.5-0.9-1.1-1.1-1.7C62.1,20.1,62,19.4,62,18.8z M69.5,18.8c0-0.4-0.2-0.9-0.4-1.3
	c-0.3-0.4-0.6-0.6-1-0.8c-0.4-0.2-0.9-0.2-1.3-0.1c-0.4,0.1-0.8,0.3-1.2,0.6S65.1,18,65,18.4c-0.1,0.4,0,0.9,0.1,1.3
	c0.2,0.4,0.5,0.8,0.8,1c0.4,0.2,0.8,0.4,1.3,0.4c0.3,0,0.6-0.1,0.9-0.2c0.3-0.1,0.5-0.3,0.7-0.5c0.2-0.2,0.4-0.5,0.5-0.8
	C69.5,19.4,69.5,19.1,69.5,18.8L69.5,18.8z"/>
<path class="st0" d="M73.9,11.1c0-0.4,0.1-0.7,0.3-1c0.2-0.3,0.5-0.5,0.8-0.7c0.3-0.1,0.7-0.2,1-0.1c0.3,0.1,0.7,0.2,0.9,0.5
	c0.2,0.2,0.4,0.6,0.5,0.9c0.1,0.3,0,0.7-0.1,1c-0.1,0.3-0.4,0.6-0.7,0.8c-0.3,0.2-0.6,0.3-1,0.3c-0.5,0-0.9-0.2-1.3-0.5
	C74.1,12.1,73.9,11.6,73.9,11.1z M74.2,13.8h3v9.9h-3V13.8z"/>
<path class="st0" d="M90,18.8c0,0.7-0.1,1.3-0.3,1.9c-0.2,0.6-0.6,1.2-1,1.7c-0.4,0.5-1,0.9-1.6,1.2c-0.6,0.3-1.2,0.4-1.9,0.5
	c-0.6,0-1.1-0.1-1.6-0.3c-0.5-0.2-1-0.5-1.4-0.9v4.9h-3V13.8h3v0.9c0.4-0.4,0.8-0.7,1.4-0.9c0.5-0.2,1.1-0.3,1.6-0.3
	c0.7,0,1.3,0.2,1.9,0.5c0.6,0.3,1.1,0.7,1.6,1.2c0.4,0.5,0.8,1.1,1,1.7C89.9,17.4,90,18.1,90,18.8z M87,18.8c0-0.5-0.2-0.9-0.4-1.3
	c-0.3-0.4-0.6-0.7-1.1-0.8c-0.4-0.2-0.9-0.2-1.4-0.1c-0.5,0.1-0.9,0.3-1.2,0.7c-0.3,0.3-0.5,0.8-0.6,1.2c-0.1,0.5,0,0.9,0.1,1.4
	c0.2,0.4,0.5,0.8,0.9,1c0.4,0.3,0.8,0.4,1.3,0.4c0.3,0,0.6,0,0.9-0.2c0.3-0.1,0.6-0.3,0.8-0.5s0.4-0.5,0.5-0.8
	C87,19.4,87,19.1,87,18.8z"/>
<path class="st0" d="M99.1,20.7c0,2.3-2,3.2-4.1,3.2c-0.9,0.1-1.7-0.1-2.5-0.5s-1.4-1.1-1.8-1.8l2.6-1.5c0.1,0.4,0.3,0.7,0.6,0.9
	c0.3,0.2,0.7,0.3,1,0.3c0.7,0,1.1-0.2,1.1-0.6c0-1.1-4.9-0.5-4.9-3.9c0-2.2,1.8-3.2,3.9-3.2c0.8,0,1.6,0.1,2.3,0.5
	c0.7,0.4,1.3,0.9,1.7,1.6L96.4,17c-0.1-0.3-0.3-0.5-0.5-0.6c-0.2-0.2-0.5-0.2-0.8-0.2c-0.5,0-0.8,0.2-0.8,0.6
	C94.3,17.8,99.1,17.1,99.1,20.7z"/>
<path class="st0" d="M110,13.8v9.9h-3v-0.9c-0.3,0.4-0.8,0.7-1.3,1c-0.5,0.2-1,0.3-1.6,0.3c-2,0-3.7-1.4-3.7-4.1v-6.1h3v5.7
	c0,0.2,0,0.5,0.1,0.7c0.1,0.2,0.2,0.4,0.4,0.6c0.2,0.2,0.4,0.3,0.6,0.4c0.2,0.1,0.5,0.1,0.7,0.1c1.1,0,1.8-0.6,1.8-2v-5.4H110z"/>
<path class="st0" d="M127,17.6v6.1h-3v-5.8c0-1-0.5-1.6-1.4-1.6c-1,0-1.6,0.7-1.6,1.9v5.6h-3v-5.8c0-1-0.5-1.6-1.4-1.6
	s-1.6,0.7-1.6,1.9v5.6h-3v-9.9h3v0.9c0.3-0.4,0.7-0.7,1.2-0.9c0.5-0.2,1-0.3,1.5-0.3c0.5,0,1,0.1,1.5,0.3c0.5,0.2,0.8,0.6,1.1,1
	c0.3-0.4,0.8-0.8,1.3-1c0.5-0.2,1.1-0.3,1.6-0.3C125.5,13.5,127,15.1,127,17.6z"/>
<path class="st0" d="M129.5,13.7c1.2,0,2.2-1,2.2-2.2s-1-2.2-2.2-2.2c-1.2,0-2.2,1-2.2,2.2S128.3,13.7,129.5,13.7z"/>
<g id="sbr7gG.tif">
	<g>
		<path d="M131.3,23.9c-0.6,0.1-1.4-0.1-1.8,0.3c-0.3,0.3-0.2,1.1-0.2,1.9c-0.3,0-0.7,0-1,0c-0.3,0-0.6,0-1,0c0,0.7,0,1.3,0,2
			c-10.2,0-20.4,0-30.6,0c0-0.7,0-1.3,0-1.9c-0.7,0-1.3-0.1-2-0.1c0-0.6,0-1.2,0-1.9c-0.7,0-1.3,0-2,0c0-5,0-10,0-15
			c0.6,0,1.2,0,2,0c0-0.7,0-1.3,0-2c0.7,0,1.3-0.1,2-0.1c0-0.7,0.1-1.3,0.1-2c10.2,0,20.3,0,30.5,0c0,0.6,0,1.2,0,1.9
			c0.7,0,1.3,0,2,0c0,0.7,0.1,1.3,0.1,2c0.7,0,1.3,0,1.9,0C131.3,13.8,131.3,18.9,131.3,23.9z M97.3,5.6c0,0.7,0,1.3,0,1.9
			c-0.7,0-1.3,0.1-2,0.1c0,0.7,0,1.3,0,2c-0.7,0-1.3,0-2,0c0,4.6,0,9.1,0,13.7c0.7,0,1.4,0.1,2.1,0.1c0,0.7,0,1.3,0,1.9
			c0.7,0,1.3,0.1,1.9,0.1c0,0.7,0.1,1.3,0.1,1.9c3.9,0,7.8,0,11.7,0c0-0.7,0-1.3,0-2c0.7,0,1.4-0.1,2-0.1c0-0.7,0.1-1.3,0.1-2
			c0.7,0,1.3,0,1.9,0c0-4.6,0-9.1,0-13.7c-0.7,0-1.3,0-1.9,0c-0.1-0.7,0.1-1.6-0.3-1.9c-0.4-0.4-1.2-0.2-2-0.3c0-0.7,0-1.3,0-1.9
			C105.1,5.6,101.3,5.6,97.3,5.6z M120,23.4c0.3,0,0.5,0,0.7,0c1.2,0,1.2,0,1.2-1.2c0-3.8,0-7.6,0-11.4c0-0.4,0-0.7,0-1.1
			c-0.7,0-1.3-0.1-2-0.1c0-0.7-0.1-1.3-0.1-2c-0.7,0-1.4,0-2.1,0c0-0.7,0-1.3,0-1.9c-2.7,0-5.4,0-8,0c0,0.5,0,0.9,0,1.4
			c0.7,0,1.3,0.1,1.9,0.1c0,0.6,0.1,1.2,0.1,1.7c0.2,0,0.3,0.1,0.3,0.1c0.9,0,1.8,0,2.6,0c1.5,0,1.5,0,1.6,1.5c0,0.2,0,0.3,0.1,0.6
			c0.6,0,1.3,0.1,1.9,0.1c0,3.6,0,7.2,0,10.9c-0.7,0-1.3,0-1.9,0c0,0.7-0.1,1.3-0.1,1.9c-1.6,0.1-3,0.2-4.5,0.2c0,0.7-0.1,1.3-0.1,2
			c-0.7,0-1.3,0-1.9,0c0,0.5,0,0.9,0,1.2c2.7,0,5.3,0,8,0c0-0.7,0-1.3,0-1.9c0.7,0,1.4-0.1,2.1-0.1C119.9,24.6,120,24,120,23.4z
			 M118.6,26.1c0,0.5,0,0.9,0,1.3c2.7,0,5.3,0,8,0c0-0.4,0-0.7,0-1c0-0.3,0-0.6,0-1c0.7-0.1,1.6,0.1,1.9-0.2
			c0.3-0.3,0.2-1.2,0.3-1.8c0.3,0,0.6-0.1,0.8,0c0.9,0.1,1.1-0.2,1.1-1.1c0-3.9,0-7.8,0-11.6c0-0.3,0-0.6,0-1c-0.7,0-1.4-0.1-2-0.1
			c0-0.7-0.1-1.3-0.1-2c-0.7,0-1.4,0-2.1,0c0-0.7,0-1.3,0-2c-2.7,0-5.4,0-8,0c0,0.4,0,0.8,0,1.3c0.7,0,1.3,0,1.9,0
			c0,0.7,0.1,1.3,0.1,2c1.2,0,2.4,0,3.6,0c0.8,0,1.2,0.2,1,1c0,0.3,0,0.7,0,1.1c0.7,0,1.4,0.1,2,0.1c0,3.7,0,7.2,0,10.8
			c-0.7,0-1.3,0.1-2,0.1c0,0.7,0,1.3,0,2c-1.6,0-3,0-4.6,0c0,0.7-0.1,1.3-0.1,2C119.8,26,119.2,26,118.6,26.1z M113.9,9.6
			c0,0.4,0,0.8,0,1.1c0,3.7,0,7.5,0,11.2c0,1.6,0,1.6,1.6,1.4c0.1,0,0.2-0.1,0.3-0.2c0-0.6,0-1.2,0-1.9c0.7,0,1.3,0,1.9,0
			c0-3.2,0-6.4,0-9.5c-0.7,0-1.3-0.1-2-0.1c0-0.7,0-1.3,0-2C115.1,9.6,114.6,9.6,113.9,9.6z M124.6,9.6c-0.7,0-1.3,0-1.8,0
			c0,4.6,0,9.1,0,13.6c1.8,0.3,1.8,0.3,1.8-1.3c0-0.2,0.1-0.4,0.1-0.6c0.7,0,1.2-0.1,1.9-0.1c0-3.2,0-6.3,0-9.5c-0.7,0-1.3,0-1.9,0
			C124.6,10.9,124.6,10.3,124.6,9.6z"/>
		<path d="M44.2,8c0.2-1,0.3-1.8,0.5-2.6c1.9,0,3.9,0,6,0c-0.2,1.3-0.4,2.5-0.6,3.7c-0.9,5-1.8,10.1-2.7,15.1
			c-0.1,0.4-0.1,0.7-0.7,0.7c-1.8,0-3.5,0-5.4,0c0.1-0.8,0.2-1.6,0.4-2.6c-0.3,0.3-0.5,0.5-0.8,0.7c-2.2,1.9-4.8,2.6-7.6,2
			c-3.1-0.7-4.7-2.8-5.1-5.8c-0.6-4.9,0.9-9.1,4.9-12.2c2.3-1.7,4.9-2.3,7.7-1.6C42.2,5.7,43.3,6.6,44.2,8z M34.3,16.2
			c-0.1,2.6,1.8,4.2,4.5,3.7c2.6-0.5,4.6-3.4,4.3-6.2c-0.2-2.4-1.9-3.7-4.3-3.3C36.2,10.8,34.3,13.2,34.3,16.2z"/>
		<path d="M11.6,24.9c-2,0-3.9,0-5.9,0C7.1,16.7,8.5,8.6,10,0.3c1.9,0,3.7,0,5.5,0c1.9,0,3.8,0,5.6,0.1c5.2,0.4,7.4,4,6,9
			c-1.1,3.8-4.7,6.4-8.8,6.6c-1.4,0.1-2.9,0.1-4.3,0.1c-0.7,0-0.9,0.3-1,0.9c-0.4,2.5-0.9,4.9-1.3,7.4
			C11.7,24.6,11.6,24.7,11.6,24.9z M14.1,11.4c1.2,0,2.3,0,3.4,0c2.4,0,3.8-1.5,3.9-3.9c0-1.4-0.7-2.3-2.1-2.4
			c-1.2-0.1-2.4-0.1-3.6,0c-0.2,0-0.5,0.3-0.5,0.4C14.7,7.5,14.4,9.4,14.1,11.4z"/>
		<path d="M59.5,5.4c0.8,4,1.6,7.9,2.4,12.1c0.3-0.5,0.5-0.7,0.6-1c1.9-3.4,3.7-6.8,5.6-10.2c0.4-0.7,0.8-1,1.7-1
			c1.7,0.1,3.5,0,5.4,0c-1.3,2.2-2.5,4.2-3.7,6.2c-4.4,7.3-8.8,14.6-13.2,21.9c-0.4,0.6-0.8,0.8-1.5,0.8c-1.8,0-3.5,0-5.4,0
			c0.2-0.4,0.4-0.7,0.6-1c1.7-2.8,3.5-5.5,5.2-8.3c0.2-0.4,0.3-1,0.2-1.4c-1.4-6-2.9-12-4.4-18.1C55.1,5.4,57.3,5.4,59.5,5.4z"/>
		<path d="M84.5,9.8c0,0.7-0.1,1.3-0.1,2c-0.7,0-1.3,0-1.9,0c0,3.2,0,6.3,0,9.6c0.6,0,1.2,0,1.9,0c0,0.3,0.1,0.6,0.1,0.9
			c0,1.2,0,1.2,1.3,1.2c1.6,0,3.3,0,5,0c0,0.7,0,1.3,0,2c0.7,0,1.3,0,2,0c0,0.9,0,1.7,0,2.6c-3.6,0-7.2,0-10.9,0
			c0-0.6-0.1-1.2-0.1-1.9c-0.7,0-1.3-0.1-2-0.1c0-0.7,0-1.3,0-1.9c-0.2-0.1-0.3-0.1-0.4-0.1c-1.6-0.1-1.6-0.1-1.6-1.8
			c0-4,0-8.1,0-12.1c0-0.4,0-0.7,0-1.1c0.7,0,1.3,0,2,0c0-0.7,0-1.3,0-2c0.7,0,1.3,0,2,0c0-0.7,0.1-1.3,0.1-2c3.7,0,7.3,0,10.9,0
			c0,0.8,0,1.5,0,2.4c-0.6,0-1.2,0-1.9,0c0,0.7,0,1.3,0,2.1C88.7,9.6,86.6,9.7,84.5,9.8z M80.4,9.7c-0.5,0-0.9,0-1.3,0
			c-0.7-0.1-0.8,0.2-0.8,0.8c0,4.1,0,8.1,0,12.2c0,0.6,0.2,0.8,0.8,0.8c0.4,0,0.9,0,1.4,0c0,0.8,0,1.4,0,2c0.7,0,1.3,0.1,2,0.1
			c0,0.7,0,1.3,0,1.9c3.3,0,6.5,0,9.6,0c0-0.5,0-0.8,0-1.3c-0.7,0-1.3,0-2,0c0-0.7,0-1.4,0-2.1c-2.1,0-4.1,0-6.2,0
			c-0.1-0.7-0.1-1.4-0.1-2.1c-0.7,0-1.3,0-2,0c0-3.7,0-7.2,0-10.9c0.5,0,0.8,0,1.2,0c0.7,0.1,0.9-0.2,0.8-0.8c0-0.4,0-0.8,0.1-1.2
			C86,9,88,8.9,90.1,8.9c0-0.7,0-1.4,0-2.1c0.7,0,1.3,0,1.9,0c0-0.4,0-0.7,0-1.1c-3.3,0-6.4,0-9.7,0c0,0.7,0,1.3,0,2
			c-0.7,0-1.3,0-2,0C80.4,8.4,80.4,9,80.4,9.7z"/>
		<path d="M98.9,24c-0.1-0.7,0.1-1.5-0.3-1.9c-0.3-0.3-1.2-0.2-1.8-0.3c0-3.6,0-7.1,0-10.8c0.7,0,1.3,0,2,0c0-0.7,0.1-1.3,0.1-2
			c2.9,0,5.8,0,8.8,0c0,0.6,0.1,1.2,0.1,1.9c0.7,0,1.3,0,1.9,0c0,3.7,0,7.2,0,10.9c-0.6,0-1.3,0.1-2,0.1c0,0.7-0.1,1.3-0.1,2
			C104.7,24,101.8,24,98.9,24z M109,21.3c0-3.3,0-6.4,0-9.6c-0.7,0-1.3,0-2,0c0-0.7,0-1.3,0-2c-2,0-3.9,0-5.8,0
			c-1.7,0-1.7,0-1.8,1.7c0,0.1-0.1,0.2-0.1,0.3c-0.6,0-1.2,0-1.8,0c0,3.2,0,6.4,0,9.5c0.7,0,1.3,0.1,1.9,0.1c0,0.7,0.1,1.3,0.1,1.9
			c2.5,0,5,0,7.5,0c0-0.7,0.1-1.3,0.1-1.9C107.7,21.3,108.3,21.3,109,21.3z"/>
	</g>
</g>
<path d="M100.9,14.6c0.2,0,0.3,0,0.5,0c0-0.2,0-0.3,0-0.5c0.2,0,0.3,0,0.5,0c0-0.2,0-0.3,0.1-0.5c0.3,0,0.6,0,1,0
	c0-0.2,0-0.3,0.1-0.5c0.3,0,0.6,0,1,0c0,0.1,0,0.3,0.1,0.5c0.3,0,0.6,0,0.9,0c0,0.2,0,0.3,0.1,0.5c0.2,0,0.3,0,0.5,0.1
	c0,0.1,0,0.3,0.1,0.4c0.1,0,0.3,0,0.4,0.1c0,0.3,0,0.6,0,1c-0.3,0-0.6,0-1,0c0-0.2-0.1-0.3-0.1-0.5c-0.1,0-0.3,0-0.4,0
	c0-0.1,0-0.3-0.1-0.5c-0.1,0-0.3,0-0.5,0c0,0.5,0,1,0,1.6c0.3,0,0.6,0,0.9,0c0,0.2,0.1,0.3,0.1,0.5c0.2,0,0.3,0,0.5,0.1
	c0,0.1,0,0.3,0.1,0.5c0.1,0,0.3,0,0.4,0c0,0.5,0,1,0,1.5c-0.1,0-0.3,0-0.4,0.1c0,0.1,0,0.3-0.1,0.5c-0.2,0-0.3,0-0.5,0
	c0,0.2-0.1,0.3-0.1,0.5c-0.3,0-0.6,0-0.9,0c0,0.2,0,0.3-0.1,0.5c-0.3,0-0.6,0-0.9,0c0-0.1,0-0.3-0.1-0.5c-0.3,0-0.6,0-1,0
	c0-0.2,0-0.3,0-0.5c-0.2,0-0.3,0-0.5-0.1c0-0.1,0-0.3,0-0.4c-0.1,0-0.3,0-0.5-0.1c0-0.3,0-0.6,0-0.9c0.3,0,0.6,0,0.9,0
	c0,0.1,0,0.3,0.1,0.4c0.1,0,0.3,0,0.5,0.1c0,0.1,0,0.3,0.1,0.5c0.1,0,0.3,0,0.5,0c0-0.5,0-1,0-1.5c-0.3,0-0.6,0-1,0
	c0-0.2,0-0.3-0.1-0.5c-0.2,0-0.3,0-0.5,0c0-0.2,0-0.3-0.1-0.5c-0.1,0-0.3,0-0.4,0C100.9,15.6,100.9,15.1,100.9,14.6z M101.8,15.5
	c0.2,0,0.3,0,0.5,0.1c0,0.2,0,0.4,0.1,0.6c0.2,0,0.3,0,0.5,0c0-0.6,0-1.1,0-1.6c-0.2,0-0.3,0-0.5,0c0,0.2,0,0.3-0.1,0.5
	c-0.2,0-0.3,0-0.5,0.1C101.8,15.2,101.8,15.4,101.8,15.5z M103.9,18.7c0.2,0,0.3,0,0.5,0c0-0.2,0-0.3,0.1-0.4c0.2,0,0.3-0.1,0.4-0.1
	c0-0.2,0-0.3,0-0.5c-0.2,0-0.3,0-0.4,0c0-0.2,0-0.3-0.1-0.5c-0.2,0-0.3,0-0.5,0C103.9,17.7,103.9,18.2,103.9,18.7z"/>
</svg>
