<?xml version="1.0" encoding="utf-8"?>
<!-- Generator: Adobe Illustrator 27.0.0, SVG Export Plug-In . SVG Version: 6.00 Build 0)  -->
<svg version="1.1" id="logo-7" xmlns="http://www.w3.org/2000/svg" xmlns:xlink="http://www.w3.org/1999/xlink" x="0px" y="0px"
	 viewBox="0 0 124 32" style="enable-background:new 0 0 124 32;" xml:space="preserve">
<style type="text/css">
	.st0{display:none;}
	.st1{fill:#606161;}
	.st2{fill:#222323;}
	.st3{fill:#8A2C79;}
	.st4{fill:#882675;}
	.st5{fill:#8A2577;}
	.st6{fill:#FFFFFF;}
</style>
<path class="st0" d="M36.9,10.1h3v12.1h-3V10.1z M41.1,17.6c0-3,1.8-4.8,4.7-4.8s4.7,1.8,4.7,4.8s-1.8,4.8-4.7,4.8
	C42.9,22.4,41.1,20.7,41.1,17.6z M47.4,17.6c0-1.7-0.7-2.6-1.7-2.6c-1,0-1.7,1-1.7,2.6c0,1.6,0.6,2.6,1.7,2.6
	C46.8,20.2,47.4,19.3,47.4,17.6L47.4,17.6z M51.5,22.8h2.9c0.1,0.3,0.4,0.6,0.7,0.7c0.3,0.2,0.6,0.2,1,0.2c1.1,0,1.7-0.6,1.7-1.5
	v-1.7h-0.1c-0.2,0.5-0.6,0.9-1.1,1.2c-0.5,0.3-1,0.4-1.6,0.4c-2.2,0-3.6-1.7-3.6-4.5s1.4-4.7,3.7-4.7c0.6,0,1.2,0.1,1.7,0.4
	c0.5,0.3,0.9,0.8,1.1,1.3l0,0V13h3v9.1c0,2.2-1.9,3.5-4.8,3.5C53.4,25.6,51.7,24.5,51.5,22.8L51.5,22.8z M57.8,17.6
	c0-1.5-0.7-2.4-1.7-2.4s-1.7,0.9-1.7,2.4c0,1.5,0.6,2.3,1.7,2.3S57.8,19.1,57.8,17.6L57.8,17.6z M61.9,17.6c0-3,1.8-4.8,4.7-4.8
	c2.8,0,4.7,1.8,4.7,4.8s-1.8,4.8-4.7,4.8S61.9,20.7,61.9,17.6L61.9,17.6z M68.3,17.6c0-1.7-0.7-2.6-1.7-2.6c-1,0-1.6,1-1.6,2.6
	c0,1.6,0.6,2.6,1.7,2.6C67.7,20.2,68.3,19.3,68.3,17.6L68.3,17.6z M72.4,10.8c0-0.3,0.1-0.6,0.2-0.9c0.2-0.3,0.4-0.5,0.7-0.6
	s0.6-0.2,0.9-0.1c0.3,0.1,0.6,0.2,0.8,0.4c0.2,0.2,0.4,0.5,0.4,0.8c0.1,0.3,0,0.6-0.1,0.9c-0.1,0.3-0.3,0.5-0.5,0.7
	c-0.2,0.2-0.5,0.3-0.8,0.3c-0.2,0-0.4,0-0.6-0.1c-0.2-0.1-0.4-0.2-0.5-0.3c-0.1-0.1-0.3-0.3-0.3-0.5C72.5,11.2,72.4,11,72.4,10.8
	L72.4,10.8z M72.4,13h3v9.2h-3V13z M86.3,17.6c0,3-1.3,4.7-3.6,4.7c-0.6,0-1.2-0.1-1.7-0.4c-0.5-0.3-0.9-0.8-1.1-1.3h-0.1v4.5h-3V13
	h3v1.6h0.1c0.2-0.5,0.6-1,1.1-1.3s1.1-0.5,1.7-0.4C85,12.9,86.4,14.6,86.3,17.6L86.3,17.6z M83.3,17.6c0-1.5-0.7-2.4-1.7-2.4
	s-1.7,0.9-1.7,2.4c0,1.4,0.7,2.4,1.7,2.4S83.3,19.1,83.3,17.6L83.3,17.6z M91.5,12.8c2.5,0,4,1.2,4.1,3.1h-2.7
	c0-0.7-0.5-1.1-1.4-1.1c-0.8,0-1.2,0.3-1.2,0.8c0,0.5,0.3,0.6,1,0.8l1.9,0.4c1.8,0.4,2.6,1.1,2.6,2.5c0,1.9-1.7,3.1-4.3,3.1
	s-4.2-1.2-4.3-3.1H90c0.1,0.7,0.6,1.1,1.5,1.1c0.9,0,1.3-0.3,1.3-0.8c0-0.5-0.3-0.6-1-0.7l-1.7-0.4c-1.8-0.4-2.7-1.3-2.7-2.7
	C87.4,14,89,12.8,91.5,12.8L91.5,12.8z M105.8,22.2h-2.9v-1.7h-0.1c-0.2,0.6-0.5,1.1-1,1.4c-0.5,0.3-1.1,0.5-1.7,0.5
	c-0.5,0-0.9,0-1.3-0.2c-0.4-0.2-0.8-0.4-1.1-0.7c-0.3-0.3-0.6-0.7-0.7-1.1c-0.2-0.4-0.2-0.9-0.2-1.3V13h3v5.2c0,1.1,0.6,1.7,1.5,1.7
	c0.2,0,0.4,0,0.6-0.1c0.2-0.1,0.4-0.2,0.5-0.4c0.1-0.2,0.3-0.4,0.3-0.6c0.1-0.2,0.1-0.4,0.1-0.6V13h3L105.8,22.2z M107.2,13h2.9v1.8
	h0.1c0.2-0.6,0.5-1.1,1-1.4s1-0.5,1.6-0.5c0.6,0,1.2,0.1,1.7,0.5c0.5,0.4,0.8,0.9,0.9,1.5h0.1c0.2-0.6,0.6-1.1,1.1-1.5
	c0.5-0.4,1.1-0.5,1.8-0.5c0.4,0,0.8,0.1,1.2,0.2c0.4,0.2,0.7,0.4,1,0.7c0.3,0.3,0.5,0.6,0.6,1c0.1,0.4,0.2,0.8,0.2,1.2v6.3h-3v-5.5
	c0-1-0.4-1.5-1.3-1.5c-0.2,0-0.4,0-0.5,0.1c-0.2,0.1-0.3,0.2-0.4,0.3s-0.2,0.3-0.3,0.5c-0.1,0.2-0.1,0.4,0,0.6v5.4h-2.8v-5.5
	c0-0.9-0.5-1.4-1.3-1.4c-0.2,0-0.4,0-0.5,0.1c-0.2,0.1-0.3,0.2-0.5,0.3c-0.1,0.1-0.2,0.3-0.3,0.5c-0.1,0.2-0.1,0.4-0.1,0.6v5.4h-3
	L107.2,13z"/>
<path class="st0" d="M28.5,10.6c-0.5-1.2-1.2-2.2-2-3.2c-1.2-1.5-2.7-2.7-4.4-3.5c-1.7-0.9-3.6-1.3-5.5-1.4s-3.8,0.2-5.6,1
	C9.2,4.1,7.6,5.2,6.3,6.6c-1.3,1.4-2.4,3-3,4.8c-0.6,1.8-0.9,3.7-0.8,5.6c0.1,1.9,0.7,3.8,1.6,5.4c0.9,1.7,2.2,3.1,3.7,4.3
	c1,0.8,2.1,1.4,3.2,1.8c1.6,0.7,3.3,1,5.1,1c3.6,0,7-1.4,9.6-4c2.5-2.5,4-6,4-9.6C29.6,14.1,29.2,12.3,28.5,10.6L28.5,10.6z
	 M16.1,5.2c1.6,0,3.1,0.3,4.5,1l0,0c-0.3,0.1-0.7,0.3-1.1,0.3c-1.2,0.2-2.4,0.7-3.2,1.6c-0.9,0.9-1.4,2-1.6,3.2
	c-0.1,0.7-0.4,1.3-0.9,1.8c-0.5,0.5-1.1,0.8-1.8,0.8c-1.2,0.2-2.4,0.7-3.2,1.6s-1.4,2-1.6,3.2c-0.1,0.7-0.3,1.3-0.8,1.7l0,0
	c-0.8-1.6-1.1-3.5-1-5.3s0.7-3.6,1.7-5.1c1-1.5,2.3-2.8,3.9-3.7C12.5,5.6,14.2,5.2,16.1,5.2L16.1,5.2z M7.8,23
	c0.1-0.1,0.2-0.2,0.4-0.3c0.9-0.9,1.5-2,1.6-3.2c0.1-0.7,0.4-1.3,0.9-1.8c0.5-0.5,1.1-0.8,1.8-0.9c1.2-0.2,2.4-0.7,3.2-1.6
	c0.9-0.9,1.4-2,1.6-3.2c0-0.7,0.4-1.4,0.9-1.9c0.5-0.5,1.1-0.8,1.8-0.8c1.1-0.2,2.2-0.7,3-1.4c0.9,0.8,1.7,1.7,2.4,2.8
	c0,0.1-0.1,0.1-0.1,0.1c-0.5,0.5-1.1,0.8-1.8,0.9c-1.2,0.2-2.4,0.7-3.2,1.6c-0.9,0.9-1.4,2-1.6,3.2c-0.1,0.7-0.4,1.3-0.9,1.8
	c-0.5,0.5-1.1,0.8-1.8,0.9c-1.2,0.2-2.4,0.7-3.2,1.6c-0.9,0.9-1.5,2-1.6,3.2c-0.1,0.5-0.2,1-0.5,1.4C9.5,24.7,8.6,23.9,7.8,23
	L7.8,23z M16.1,26.9c-1,0-2-0.1-3-0.4c0.3-0.6,0.6-1.3,0.6-2c0.1-0.7,0.4-1.3,0.9-1.8c0.5-0.5,1.1-0.8,1.8-0.9
	c1.2-0.2,2.4-0.7,3.2-1.6c0.9-0.9,1.4-2,1.6-3.2c0.1-0.7,0.4-1.3,0.9-1.8c0.5-0.5,1.1-0.8,1.8-0.9c0.9-0.1,1.8-0.5,2.6-1
	c0.4,1.6,0.5,3.3,0.1,4.9c-0.3,1.6-1,3.1-2,4.5c-1,1.3-2.3,2.4-3.8,3.1C19.3,26.4,17.7,26.8,16.1,26.9L16.1,26.9z"/>
<g id="Bx07mX.tif">
	<g>
		<path class="st1" d="M122,20.3c-0.3,0.3-0.2,0.8-0.3,1.1c-0.6,2.9-2.4,4.7-5.4,5.3c-1.9,0.4-3.8,0.4-5.7-0.1
			c-2.4-0.6-3.9-2.1-4.5-4.3c-0.7-2.5-0.7-5-0.2-7.5c0.6-2.8,2.4-4.5,5.1-5.1c1.9-0.4,3.8-0.5,5.7,0c2.9,0.7,4.4,2.7,5,5.5
			c0.1,0.4,0,0.8,0.3,1.1C122,17.6,122,19,122,20.3z"/>
		<path class="st1" d="M87.6,31.1c0,0.2,0,0.6-0.3,0.6c-0.3,0-0.3-0.3-0.3-0.5c-0.1-0.5-0.2-1-0.2-1.6c0-0.3-0.1-0.4-0.4-0.4
			c-1.5,0-1.5,0-1.9,1.4c-0.1,0.3-0.2,0.5-0.3,0.8c-0.1,0.2-0.1,0.4-0.4,0.4c-0.2-0.1-0.1-0.3-0.2-0.5c-0.1-0.6,0.1-1.2,0.2-1.8
			c0.1-0.4-0.1-0.5-0.4-0.6c-0.6-0.2-1.3-0.4-1.8-0.8c-0.3-0.2-0.4-0.1-0.6,0.2c-0.4,0.8-0.9,1.6-1.6,2.2c-0.1,0.1-0.3,0.4-0.5,0.3
			c-0.2-0.1-0.1-0.4-0.1-0.6c0.3-0.9,0.7-1.8,1.1-2.6c0.1-0.3,0.2-0.4-0.1-0.6c-0.5-0.4-0.9-0.9-1.2-1.4c-0.2-0.3-0.3-0.2-0.5,0
			c-0.6,0.6-1.3,1.2-2,1.7c-0.1,0.1-0.3,0.2-0.4,0.3c-0.2,0.1-0.5,0.3-0.7,0.1c-0.2-0.2,0-0.5,0.2-0.7c0.7-0.9,1.5-1.6,2.3-2.3
			c0.3-0.2,0.4-0.4,0.1-0.7c-0.3-0.5-0.5-1-0.7-1.6c-0.1-0.2-0.2-0.2-0.4-0.2c-0.2,0.1-0.5-0.1-0.6,0.3l0,0c-0.3,0-0.7,0.3-0.8-0.1
			c-0.1-0.4,0.3-0.5,0.6-0.5c0.1,0,0.2-0.2,0.3-0.2c0.4-0.2,0.5-0.4,0.4-0.9c-0.2-0.6-0.4-1.3-0.5-2c-0.1-0.4-0.2-0.4-0.6-0.4
			c-0.6,0.1-1.2,0.2-1.8,0.2c-0.2,0-0.5,0-0.5-0.2c0-0.2,0.2-0.3,0.4-0.4c0.6-0.3,1.2-0.4,1.8-0.5c0.4-0.1,0.5-0.2,0.4-0.5
			c0-0.5,0.1-1,0-1.5c0,0,0-0.1,0-0.1c0.1-0.3,0.1-0.7,0-1c-0.9,0-1.8,0-2.7-0.2c-0.2,0-0.4-0.1-0.4-0.3c0-0.2,0.3-0.2,0.5-0.2
			c0.8,0,1.5,0,2.3,0c0.3,0,0.5-0.1,0.5-0.4c0-0.2,0.1-0.4,0.1-0.6c0.2-1,0.2-1-0.7-1.4c-0.6-0.2-1.1-0.5-1.6-0.9
			c-0.2-0.2-0.4-0.3-0.3-0.6c0.1-0.3,0.4-0.2,0.7-0.2c0.8,0.1,1.5,0.5,2.2,0.8c0.4,0.2,0.5,0.2,0.7-0.2c0.2-0.5,0.7-1,0.6-1.3
			c-0.1-0.4-0.8-0.5-1.2-0.8c-0.3-0.2-0.6-0.4-0.8-0.6c-0.2-0.2-0.5-0.4-0.3-0.7c0.2-0.2,0.5-0.1,0.7,0c0.6,0.3,1.2,0.6,1.8,1
			c0.4,0.3,0.6,0.2,0.9-0.1c0.9-1,0.9-1,0-1.9C78,5,77.7,4.6,77.4,4.1c-0.1-0.2-0.2-0.3,0-0.5c0.2-0.2,0.3-0.1,0.5,0
			c0.7,0.3,1.3,0.8,1.8,1.4c0.5,0.5,0.8,0.6,1.3,0.2c0.1-0.1,0.3-0.2,0.4-0.2c0.8-0.2,1.1-0.6,0.8-1.4c0-0.6,0.1-1.1,0-1.7
			c0-0.2,0-0.3,0.2-0.4c0.2,0,0.2,0.1,0.3,0.3C83,2.4,83.2,3,83.4,3.7C83.5,4,83.5,4.3,84,4.1c0.1,0,0.3,0,0.4,0
			c0.5,0,1.1,0.2,1.5-0.1c0.3-0.2,0.3-0.9,0.4-1.4c0-0.1,0.1-0.2,0.1-0.3C86.5,2,86.6,1.4,87,1.5c0.3,0,0.2,0.7,0.2,1
			c0,0.6-0.3,1.3,0,1.8c0.2,0.4,1,0.5,1.4,0.8c0.5,0.3,0.7,0.3,1.1-0.1c0.5-0.5,1-1,1.6-1.3c0.2-0.1,0.4-0.3,0.5-0.1
			c0.2,0.2,0.1,0.4-0.1,0.6c-0.3,0.5-0.8,1-1.2,1.4c-0.4,0.4-0.6,0.6-0.1,1.1c0.5,0.4,0.7,1,0.9,1.7c0.1,0.3,0.2,0.5,0.5,0.4
			c0.2-0.1,0.4,0.1,0.5-0.1c0.1,0,0.2,0,0.3,0c0.2,0,0.4,0,0.6-0.1c0.1,0,0.2,0,0.3,0c0.1,0.1,0.4-0.1,0.4,0.2
			c-0.7,0.4-1.6,0.6-2.3,0.9c-0.1,0.3,0,0.7,0,1c0,0.1,0,0.3-0.1,0.4c-0.2,0.4-0.1,0.6,0.4,0.8c0.7,0.2,1.4,0.5,2,1.1
			c-0.9,0.1-1.6-0.1-2.3-0.2c-0.9-0.2-1.5,0.1-2.1,1c0.6,0.1,1.3,0.2,1.8,0.5c0.2,0.1,0.4,0.2,0.4,0.5c-0.1,0.3-0.3,0.2-0.5,0.2
			c-0.6,0-1.3-0.2-1.9-0.3c-0.5-0.1-0.6,0-0.8,0.4c-0.1,0.3-0.2,0.6-0.3,1c-0.1,0.7-0.1,0.7,0.6,0.6c0.3,0,0.7-0.1,1-0.2
			c0.2-0.1,0.4-0.2,0.5,0c0.1,0.2-0.1,0.3-0.3,0.4c-0.1,0.1-0.2,0.2-0.3,0.2c-0.4,0.2-0.7,0.4-1.1,0.5c-0.4,0.1-0.4,0.4-0.2,0.7
			c0.3,0.5,0.7,0.8,1.1,1c0.2,0.1,0.4,0,0.5-0.2c0.5-0.4,1-0.8,1.6-1.1c0.2-0.1,0.5-0.3,0.6-0.1c0.2,0.2-0.1,0.4-0.2,0.6
			c-0.3,0.5-0.8,0.9-1.3,1.2c-0.3,0.2-0.3,0.4-0.1,0.6c0.4,0.4,0.8,0.7,1,1.2c0.2,0.3,0.3,0.1,0.5,0c0.6-0.3,1.1-0.7,1.8-0.8
			c-0.3,0.6-0.9,0.9-1.4,1.3c-0.4,0.3-0.4,0.5-0.4,0.9c0,1.1,0.7,1.2,1.5,1.3c0.3,0,0.6,0.1,0.9,0.4c-0.5,0.2-1,0.3-1.5,0.2
			c-0.6-0.1-0.8,0.1-1,0.7c-0.2,0.5-0.1,0.6,0.4,0.8c0.6,0.2,1.2,0.4,1.6,0.9c-0.3,0.2-0.6,0.1-0.9,0c-0.3-0.1-0.6-0.2-0.8-0.4
			c-0.5-0.4-0.9-0.3-1.2,0.2c-0.2,0.2-0.4,0.5-0.7,0.6c-0.6,0.3-0.6,0.6-0.2,1.1c0.3,0.4,0.6,0.9,0.8,1.4c0.1,0.2,0.2,0.5,0,0.6
			c-0.3,0.2-0.4-0.1-0.6-0.2c-0.5-0.5-0.8-1.1-1.1-1.8c-0.1-0.3-0.2-0.4-0.6-0.2c-0.4,0.2-0.8,0.3-1.3,0.4
			C87.5,29.7,87.5,30.4,87.6,31.1z"/>
		<path class="st2" d="M41.8,10.1c0-0.3,0-0.5,0-0.7c0-2.7,0-5.4,0-8.1c0-0.6,0.2-0.7,0.7-0.6c0.7,0,1.4,0,2.1,0
			c1,0,1.5,0.4,1.7,1.4c0,0.2,0,0.5,0,0.7c0,7.2,0,14.4,0,21.7c0,0.5-0.1,0.8-0.6,1c-2.9,1.4-6,2-9.2,1.5c-2.6-0.4-4.6-1.8-5.5-4.3
			c-1.1-2.8-1.1-5.7-0.1-8.6c1-2.8,3.4-4.4,6.4-4.4C38.7,9.6,40.2,9.6,41.8,10.1z"/>
		<path class="st1" d="M19.5,20.5c-1,0-1.9,0-2.8,0c-0.5,0-0.5,0.1-0.3,0.5c0.4,1.3,1.5,1.8,2.8,2.1c1.5,0.3,2.9,0,4.3-0.6
			c1.7-0.6,2.2-0.3,2.2,1.5c0,0.2,0,0.5,0,0.7c0,1.2,0,1.2-1.2,1.6c-2.4,0.8-4.9,1-7.4,0.4c-2.9-0.7-4.9-3-5.3-5.9
			c-0.3-1.9-0.2-3.8,0.2-5.7c0.8-3.5,3.4-5.6,6.9-5.8c2.1-0.1,4.1,0.2,5.8,1.5c2.7,2,2.5,5.8,1.4,7.6c-0.7,1.2-1.9,1.6-3.2,1.9
			C21.7,20.6,20.5,20.5,19.5,20.5z"/>
		<path class="st2" d="M65.7,17.3c0,2.4,0,4.7,0,7.1c0,0.4-0.1,0.6-0.5,0.8c-2,1.1-4.2,1.7-6.5,1.8c-1.6,0.1-3.2,0.1-4.7-0.6
			c-2.4-1.1-3.7-3-3.7-5.6c-0.1-3.2,0-6.4,0-9.6c0-1.1,0.5-1.6,1.6-1.6c0.8,0,1.6,0,2.4,0c0.4,0,0.5,0.1,0.5,0.5c0,3.3,0,6.7,0,10
			c0,1.6,0.9,2.5,2.4,2.6c1.1,0.1,2.3,0,3.4-0.3c0.5-0.1,0.6-0.3,0.6-0.8c0-3.4,0-6.7,0-10.1c0-1.6,0.4-2,2-2c0.7,0,1.3,0,2,0
			c0.4,0,0.5,0.1,0.5,0.5C65.7,12.5,65.7,14.9,65.7,17.3z"/>
		<path class="st1" d="M101.5,16.6c0,1.7,0,3.4,0,5.1c0,0.6,0.2,0.9,0.8,0.9c0.9,0,1.3,0.4,1.3,1.3c0,0.9,0,1.7,0,2.6
			c0,0.3-0.1,0.4-0.4,0.4c-1,0-2,0-3,0c-1.9-0.1-3-1.3-3.1-3.5c-0.1-1.2,0-2.4,0-3.6c0-3.1,0-6.3,0-9.4c0-0.5,0.1-0.7,0.6-0.7
			c0.7,0.1,1.5,0,2.2,0c1.2,0,1.7,0.5,1.7,1.7C101.5,13.1,101.5,14.8,101.5,16.6z"/>
		<path class="st1" d="M3.1,16.7c0-2.2,0-4.3,0-6.5c0-0.4,0.1-0.6,0.5-0.6c0.8,0,1.5,0,2.3,0c1.1,0,1.6,0.5,1.6,1.6
			c0,1.3,0,2.6,0,3.9c0,2.2,0,4.4,0,6.5c0,0.6,0.2,0.9,0.8,0.9c0.9,0,1.3,0.4,1.3,1.3c0,0.9,0,1.7,0,2.6c0,0.3-0.1,0.4-0.4,0.4
			c-1,0-2,0-3,0c-1.9-0.1-3.1-1.3-3.2-3.5C3.1,21.1,3.2,18.9,3.1,16.7C3.2,16.7,3.2,16.7,3.1,16.7z"/>
		<path class="st2" d="M73.8,22.9c0.3,0.6,0.4,1.3,0.2,2c-0.3,1.4-1.6,2.2-3.1,1.9c-1.3-0.2-2.2-1.4-2.1-2.9
			c0.1-1.4,1.2-2.3,2.6-2.4c0.8,0,1.4,0.3,2,0.8C73.7,22.4,73.8,22.6,73.8,22.9z"/>
		<path class="st1" d="M5.4,7.2c-1.5,0-2.6-1-2.6-2.6c0-1.5,1.1-2.6,2.6-2.6c1.6,0,2.6,1,2.6,2.5C8,6.2,6.9,7.2,5.4,7.2z"/>
		<path class="st1" d="M99.3,2.1c1.5,0,2.6,1.1,2.6,2.6c0,1.6-1.1,2.6-2.7,2.6c-1.5,0-2.6-1.1-2.6-2.6C96.6,3.1,97.7,2.1,99.3,2.1z"
			/>
		<path class="st1" d="M73.8,22.9c-0.1-0.2-0.2-0.3-0.4-0.5c0.8-0.5,1.6-0.9,2.6-1c-0.2,0.1,0.2,0.4-0.2,0.4c-0.3,0-0.7,0-0.6,0.3
			c0,0.3,0.5,0.1,0.7,0.2C75.3,22.6,74.5,22.7,73.8,22.9z"/>
		<path class="st1" d="M89.7,17.1c0-0.3,0.4-0.3,0.5-0.7c-0.5-0.1-0.9,0.6-1.4,0.2c0.5-0.2,1-0.4,1.6-0.4c0.1,0.1,0.3,0.1,0.4,0.3
			C90.5,16.8,90.1,17,89.7,17.1z"/>
		<path class="st1" d="M87.6,31.1c-0.1-0.7-0.2-1.4,0-2C87.6,29.7,87.7,30.4,87.6,31.1z"/>
		<path class="st3" d="M82.2,1.8c0.2,0.6,0.2,1.1,0,1.7C82.2,2.9,82.2,2.4,82.2,1.8z"/>
		<path class="st4" d="M75.6,15.2c0.2,0.5,0.2,1,0,1.5C75.7,16.2,75.7,15.7,75.6,15.2z"/>
		<path class="st1" d="M75.9,22.2c0-0.6,0.4-0.3,0.6-0.3C76.4,22.1,76.2,22.2,75.9,22.2z"/>
		<path class="st4" d="M75.6,14c0.2,0.3,0.2,0.7,0,1C75.6,14.7,75.6,14.3,75.6,14z"/>
		<path class="st1" d="M91.6,10.6c-0.1-0.3-0.2-0.7,0-1C91.6,10,91.7,10.3,91.6,10.6z"/>
		<path class="st1" d="M93.3,8.5c-0.2,0.1-0.4,0.4-0.6,0.1C92.8,8.5,93.1,8.5,93.3,8.5z"/>
		<path class="st1" d="M93.9,8.7c-0.1-0.1-0.3-0.2-0.4-0.2c0.1,0,0.3,0,0.4,0c0.1,0,0.2,0,0.1,0.1C94.1,8.7,94,8.7,93.9,8.7z"/>
		<path class="st1" d="M92.4,8.6c-0.1,0.5-0.4,0-0.5,0.1C92,8.6,92.2,8.6,92.4,8.6z"/>
		<path class="st1" d="M90.7,16.4c-0.2,0-0.3-0.1-0.4-0.3C90.5,16.1,90.8,16.1,90.7,16.4z"/>
		<path class="st2" d="M117.6,18.2c0,0.6,0,1.2-0.1,1.8c-0.2,2.1-1.2,3.1-3.3,3.2c-0.6,0-1.2,0-1.7-0.2c-1.3-0.3-2.1-1.1-2.2-2.4
			c-0.2-1.7-0.2-3.4,0.1-5c0.2-1.3,1-2,2.4-2.3c0.6-0.1,1.2-0.1,1.7-0.1c2,0.1,3,1.1,3.1,3.1C117.5,16.9,117.5,17.6,117.6,18.2z"/>
		<path class="st2" d="M88.1,25.8c-0.7-0.2-1.3-0.5-1.5-1.2c-0.4-1,0.1-2.1,1.3-2.7c0.2-0.1,0.3-0.2,0.5-0.2c0.3-0.1,0.6-0.1,0.9,0
			c0.7,0.3,1.1,0.9,1.4,1.5c0.1,0.3,0.1,0.7,0,1c-0.3,0.8-0.9,1.4-1.8,1.6C88.6,25.9,88.4,25.9,88.1,25.8z"/>
		<path class="st2" d="M86.8,11.3c-1.2,0-1.8-0.7-1.9-1.9c0-1,0.8-1.7,1.9-1.7c1.1,0,2.1,0.9,2,1.9C88.8,10.6,88,11.3,86.8,11.3z"/>
		<path class="st2" d="M84.1,24.2c0,0.9-0.7,1.6-1.7,1.6c-0.9,0-1.6-0.7-1.6-1.5c0-0.9,1-1.7,1.9-1.7C83.5,22.6,84.2,23.3,84.1,24.2
			z"/>
		<path class="st2" d="M87.3,20.7c0,0.9-0.6,1.5-1.6,1.5c-0.9,0-1.6-0.6-1.6-1.3c0-0.7,1-1.6,1.8-1.6C86.6,19.2,87.3,19.9,87.3,20.7
			z"/>
		<path class="st2" d="M80.3,8.7c0.4-1,1.2-1.4,2.1-1.1c0.7,0.2,1.2,0.8,1.1,1.6c-0.1,0.7-0.5,1.2-1.3,1.3c-0.8,0.1-1.5-0.3-1.7-0.9
			c-0.1-0.2-0.1-0.3-0.2-0.5C80.2,9,80.2,8.9,80.3,8.7z"/>
		<path class="st2" d="M83,12.3c0.7,0.2,1.6,0.1,2.5,0.2c0.4,0,0.4,0.2,0.3,0.5c-0.1,0.7-0.9,1.2-1.8,1.2c-0.9,0-1.6-0.4-1.7-1.2
			C82.1,12.4,82.2,12.3,83,12.3z"/>
		<path class="st2" d="M78.8,18.6c0-0.5,0.6-1.2,1.1-1.2c0.6,0,1.2,0.7,1.2,1.3c0,0.6-0.6,1.2-1.1,1.2C79.5,19.9,78.8,19,78.8,18.6z
			"/>
		<path class="st1" d="M90.7,24.2c0-0.3,0-0.7,0-1C90.9,23.6,90.9,23.9,90.7,24.2z"/>
		<path class="st1" d="M89.3,21.7c-0.3,0-0.6,0-0.9,0C88.7,21.5,89,21.5,89.3,21.7z"/>
		<path class="st1" d="M88.1,25.8c0.3,0,0.5,0,0.8,0C88.6,26,88.4,26,88.1,25.8z"/>
		<path class="st1" d="M76.5,21.5c0.1,0,0.1,0.1,0.2,0.1c0,0.1,0,0.1-0.1,0.1C76.5,21.7,76.5,21.6,76.5,21.5
			C76.5,21.5,76.5,21.5,76.5,21.5z"/>
		<path class="st5" d="M80.3,8.7c0,0.1,0,0.2,0,0.4c0,0,0,0.1,0,0.1c-0.1,0.1-0.1,0-0.1,0C80.2,9,80.1,8.8,80.3,8.7z"/>
		<path class="st1" d="M82.3,26.1c-0.2,0.1-0.3,0.1-0.5,0C81.9,26,82.1,26.1,82.3,26.1z"/>
		<path class="st6" d="M41.8,18.4c0,1.3,0,2.6,0,4c0,0.3-0.1,0.5-0.4,0.6c-1.3,0.3-2.7,0.4-4.1,0.1c-1.3-0.3-2.1-1.1-2.5-2.3
			c-0.4-1.5-0.4-3-0.1-4.4c0.4-1.9,1.7-2.9,3.7-2.9c1,0,2,0.1,2.9,0.5c0.3,0.1,0.5,0.3,0.5,0.7C41.8,15.8,41.8,17.1,41.8,18.4z"/>
		<path class="st2" d="M15.9,16.8c0.3-1.7,1-3,2.7-3.5c0.9-0.3,1.9-0.3,2.8,0.1c0.5,0.2,0.9,0.5,1.2,1c0.7,1.3,0.2,2.2-1.2,2.4
			C19.6,16.9,17.8,16.8,15.9,16.8z"/>
		<path class="st1" d="M86.9,9.9c-0.5,0-0.8-0.3-0.8-0.7c0-0.4,0.3-0.7,0.7-0.7c0.4,0,0.8,0.2,0.8,0.7C87.6,9.6,87.3,9.8,86.9,9.9z"
			/>
		<path class="st1" d="M81.8,8.5c0.5,0.1,0.8,0.3,0.8,0.7c0,0.4-0.3,0.7-0.8,0.7c-0.4,0-0.7-0.3-0.7-0.7C81.1,8.7,81.4,8.5,81.8,8.5
			z"/>
	</g>
</g>
</svg>
