<?xml version="1.0" encoding="utf-8"?>
<!-- Generator: Adobe Illustrator 27.0.0, SVG Export Plug-In . SVG Version: 6.00 Build 0)  -->
<svg version="1.1" id="logo-8" xmlns="http://www.w3.org/2000/svg" xmlns:xlink="http://www.w3.org/1999/xlink" x="0px" y="0px"
	 viewBox="0 0 140 30" style="enable-background:new 0 0 140 30;" xml:space="preserve">
<style type="text/css">
	.st0{fill:#FEB032;}
	.st1{fill:#D57D0F;}
	.st2{fill-rule:evenodd;clip-rule:evenodd;}
	.st3{fill:#FEC223;}
	.st4{fill:#FA000F;}
	.st5{fill:#020202;}
</style>
<g>
	<polygon class="st0" points="55,11.8 58.1,14.9 51.3,14.9 	"/>
	<polygon class="st1" points="51.5,14.9 53.1,14.9 55,11.8 	"/>
	<polygon class="st0" points="43.7,23.3 35.8,15.1 45,15.1 	"/>
	<polygon class="st1" points="45.3,15.1 42.6,15.1 43.7,23.3 	"/>
	<g>
		<path class="st2" d="M80.5,18.5c0.7,0,1.4,0,2.2,0c0,0.8,0,1.7,0,2.5c0.4,0,2.3,0,2.7,0c0,0.5,0,0.9,0,1.4c-0.5,0-2.2,0-2.8,0
			c0,1.6,0.1,3.6,0.1,5c0,0.1,0.1,0.2,0.2,0.3c0.2,0.4,0.8,0.4,1.4,0.3c0.1,0.6,0.1,0.9,0.1,1.5c-2.5,0.7-3.9-0.7-3.9-2
			C80.5,26.2,80.5,19.4,80.5,18.5z"/>
		<path class="st2" d="M55.4,26c-2,0-4,0-6,0c0.4,2.5,3,2.2,5.3,1.7c0.1,0.6,0.2,1,0.4,1.6c-4.3,1.3-8-0.3-7.8-4.4
			c0.2-2.5,1.9-4,4.2-4c1.9-0.1,3.8,1.4,3.9,3.5C55.4,24.9,55.4,25.5,55.4,26z M49.3,24.5c1.3,0,2.7,0,4,0
			C53.4,21.8,49.3,22,49.3,24.5z"/>
		<path class="st2" d="M64,29.6c-0.7,0-1.3,0-2.1,0c0-1.6,0-3.6,0-5.2c0-0.7-0.7-2-1.7-1.8c-0.8,0.2-2,0.7-2.1,2
			c-0.1,1.5-0.1,3.5-0.1,5c-0.7,0-1.3,0-2,0c0-2.9,0-5.7,0-8.6c0.7,0,1.3,0,2,0c0,0.4,0,0.8,0,1.2c0.7-0.5,1.9-1.7,4-1.3
			c1.3,0.4,1.8,1.7,1.8,3.2C64,25.9,64,27.9,64,29.6z"/>
		<path class="st2" d="M72.5,29.6c-0.7,0-1.4,0-2.1,0c0-0.2,0-0.7,0-0.9c-1,1.2-2.9,1.3-4.2,0.6c-1.4-0.8-1.6-2.8-0.6-4
			c0.9-1,2.7-0.6,4.7-0.7c0.4-2.9-2.9-2-4.8-2c-0.1-0.7,0-0.9-0.1-1.5c2.4-0.4,5.1-0.8,6.3,0.8c0.4,0.5,0.7,1.1,0.7,1.8
			C72.5,25.5,72.5,27.6,72.5,29.6z M67.3,27.8c1.2,0.9,3.4,0.2,3.1-1.7C68.7,26.1,66.5,26,67.3,27.8z"/>
		<path class="st2" d="M80.1,21.2c-0.1,0.6-0.2,1.1-0.3,1.5c-3.2-0.8-4.7,1.1-4.6,2.9c0.2,1.7,1.8,3.1,4.5,2.2
			c0.1,0.4,0.3,1,0.4,1.4c-3.4,1.6-6.7-0.4-6.9-3.5C72.9,22.2,75.9,20,80.1,21.2z"/>
		<path class="st2" d="M100.6,21.3c-0.1,0.7-0.1,0.9-0.3,1.5c-1.1-0.1-4.2-1-4.2,0.3c0.1,1.7,5.9,1.5,4.6,4.9
			c-0.8,2.1-4.8,2.1-7,0.9c0.1-0.5,0.2-0.8,0.4-1.4c1.2,0.3,4.5,1.3,4.6-0.3c0-1.1-3.6-1.5-4.3-2.6C92.7,21.8,96.4,19.9,100.6,21.3z
			"/>
	</g>
	<polygon class="st3" points="43.8,0.6 43.6,23.3 55,11.8 	"/>
</g>
<g>
	<g>
		<path class="st4" d="M86.7,23.5c0-1.1,0.9-2.4,2.4-2.4c1.3,0,2.3,1.1,2.4,2.4c0,1.2-1,2.5-2.6,2.4C87.8,25.8,86.6,24.9,86.7,23.5z
			"/>
		<path class="st5" d="M93.1,24.8v1c0,0.1,0,0.1,0,0.2c0,0.1,0,0.1,0,0.2c-0.1,0.5-0.2,0.9-0.4,1.4c-0.2,0.3-0.4,0.6-0.6,0.9
			c0,0-0.1,0.1-0.1,0.1c0,0-0.1,0.1-0.2,0.1c0,0,0,0,0,0c-0.3,0.2-0.6,0.4-1,0.6c-0.3,0.1-0.6,0.2-1,0.3c0,0,0,0,0,0c0,0,0,0,0,0
			c0,0,0,0,0,0c0,0,0,0,0,0c0,0,0,0,0,0c0,0,0,0,0,0c0,0,0,0,0,0c0,0,0,0,0,0c0,0,0,0,0,0c0,0,0,0,0-0.1c0-0.6,0-1.1,0-1.7
			c0-0.1,0-0.1,0-0.1c0,0,0.1,0,0.1,0h0c0,0,0,0,0,0c0,0,0.1,0,0.1,0c0,0,0,0,0,0c0.3-0.1,0.6-0.2,0.9-0.3c0.4-0.3,0.7-0.6,1-1
			c0,0,0-0.1,0-0.1c0-0.1,0.1-0.2,0.1-0.3c0-0.1,0.1-0.2,0.1-0.3c0-0.1,0.1-0.3,0.1-0.4c0,0,0,0,0,0c0,0,0,0,0,0c0,0,0,0,0,0
			c-0.1,0.1-0.2,0.2-0.4,0.3c-0.4,0.3-0.9,0.5-1.4,0.6c0.3-0.2,0.6-0.3,0.9-0.6c0.3-0.3,0.5-0.6,0.6-1c0-0.1,0-0.1,0.1-0.1
			c0.4,0,0.7,0,1.1,0c0,0,0.1,0,0.1,0.1C93.1,24.6,93.1,24.7,93.1,24.8C93.1,24.8,93.1,24.8,93.1,24.8z"/>
		<path class="st5" d="M87.8,26.1c-0.7-0.1-1.3-0.4-1.8-0.9c0.2,0.8,0.5,1.5,1.2,2.1c0.4,0.3,0.9,0.4,1.3,0.5c0.1,0,0.1,0,0.1,0.1
			c0,0.6,0,1.1,0,1.7c0,0.1,0,0.1-0.1,0.1c-0.6-0.1-1.2-0.3-1.8-0.7c-0.7-0.5-1.2-1.1-1.4-1.9c-0.2-0.6-0.3-1.2-0.3-1.9
			c0-0.2,0-0.4,0-0.6c0-0.1,0-0.1,0.1-0.1c0.3,0,0.7,0,1,0c0,0,0.1,0,0.1,0c0.1,0.5,0.5,0.9,0.9,1.2C87.3,25.9,87.6,26,87.8,26.1z"
			/>
		<path class="st5" d="M92.5,24c-0.2,0-0.3,0-0.5,0c-0.1,0-0.1,0-0.1-0.1c0-0.5,0-1-0.2-1.5c-0.2-0.5-0.5-1-1.1-1.2
			c-0.1,0-0.1-0.1-0.1-0.1c0-0.6,0-1.1,0-1.7c0-0.1,0-0.1,0.1-0.1c0.7,0.4,1.3,0.9,1.8,1.6c0.4,0.6,0.6,1.2,0.6,1.9
			c0,0.4,0,0.8,0,1.2c0,0.1,0,0.1-0.1,0.1C92.8,24,92.7,24,92.5,24C92.5,24,92.5,24,92.5,24z"/>
		<path class="st5" d="M87.4,20.1c0,0.3,0,0.6,0,0.8c0,0.1,0,0.1-0.1,0.1c-0.7,0.4-1.1,1.1-1.1,1.9c0,0.3,0,0.5,0,0.8
			c0,0.1,0,0.1-0.1,0.1c-0.3,0-0.7,0-1,0c-0.1,0-0.1,0-0.1-0.1c0-0.4,0-0.8,0-1.2c0.1-0.9,0.4-1.7,0.9-2.3c0.3-0.4,0.7-0.7,1.2-0.9
			c0.2-0.1,0.2-0.1,0.2,0.1C87.4,19.6,87.4,19.9,87.4,20.1z"/>
		<path class="st5" d="M88.3,27.7c0,0,0.8,0.1,1.5,0l-0.1,1.8c0,0-0.6,0.2-1.4,0V27.7z"/>
	</g>
	<path class="st5" d="M93.1,24.8v4.9h-1.4v-2.9c0-0.1,0.1-0.2,0.1-0.4c0-0.1,0.1-0.3,0.1-0.4c0-0.2,0.1-0.4,0.1-0.6c0,0,0,0,0,0
		c0,0,0-0.1,0-0.1c0,0,0,0,0,0c0,0,0,0,0,0c0,0,0,0,0,0c0,0,0,0,0,0c-0.1,0.1-0.2,0.2-0.4,0.3v-0.2c0.1-0.2,0.1-0.3,0.2-0.5H93.1z"
		/>
</g>
</svg>
