<?xml version="1.0" encoding="utf-8"?>
<!-- Generator: Adobe Illustrator 27.0.0, SVG Export Plug-In . SVG Version: 6.00 Build 0)  -->
<svg version="1.1" id="logo-8" xmlns="http://www.w3.org/2000/svg" xmlns:xlink="http://www.w3.org/1999/xlink" x="0px" y="0px"
	 viewBox="0 0 140 30" style="enable-background:new 0 0 140 30;" xml:space="preserve">
<style type="text/css">
	.st0{fill-rule:evenodd;clip-rule:evenodd;fill:#71717A;}
	.st1{fill:#71717A;}
</style>
<g>
	<g>
		<path class="st0" d="M86.3,0.8c1.9,0,3.7,0,5.6,0c0,2,0,4.4,0,6.4c1.1,0,5.9,0,7.1,0c0,1.2,0,2.4,0,3.6c-1.3,0-5.7,0-7.1,0
			c0,4.1,0.1,9.2,0.1,13c0,0.3,0.3,0.5,0.4,0.8c0.5,0.9,2,0.9,3.6,0.8c0.1,1.6,0.1,2.4,0.3,3.7C89.7,31,86.1,27.2,86.1,24
			C86.3,20.5,86.3,2.9,86.3,0.8z"/>
		<path class="st0" d="M21.6,20.1c-5.2,0-10.3,0-15.5,0c1.1,6.4,7.8,5.6,13.6,4.4c0.4,1.5,0.5,2.5,0.9,4c-11,3.3-20.5-1-19.8-11.4
			C1.2,10.7,5.7,6.8,11.4,6.7c4.9-0.1,9.9,3.5,10.2,9C21.6,17,21.6,18.6,21.6,20.1z M6.1,16c3.3,0,7.1,0,10.4,0
			C16.4,9.2,6,9.6,6.1,16z"/>
		<path class="st0" d="M43.8,29.3c-1.9,0-3.5,0-5.3,0c0-4.1,0-9.4,0-13.4c0-1.7-1.7-5.1-4.3-4.5c-2.1,0.4-5.1,1.9-5.3,5.1
			c-0.1,3.9-0.1,9.1-0.1,12.8c-1.9,0-3.2,0-5.1,0c0-7.4,0-14.7,0-22.2c1.7,0,3.3,0,5.2,0c0,0.9,0,2.1,0,3.1C30.7,9,33.8,5.8,39,6.8
			c3.2,1.1,4.7,4.3,4.7,8.3C43.8,19.7,43.8,24.9,43.8,29.3z"/>
		<path class="st0" d="M65.7,29.3c-1.7,0-3.6,0-5.3,0c0-0.5,0-1.7,0-2.3c-2.5,3.2-7.5,3.3-10.8,1.5c-3.6-2-4.3-7.2-1.5-10.3
			c2.3-2.4,7-1.6,12.2-1.7c0.9-7.5-7.5-5.2-12.3-5.1c-0.1-1.7-0.1-2.3-0.1-3.9C54,6.6,61,5.5,64.2,9.6c0.9,1.3,1.9,2.8,1.9,4.5
			C65.7,18.6,65.7,24.1,65.7,29.3z M52.4,24.7c2.9,2.3,8.8,0.5,7.9-4.3C56,20.2,50.2,19.8,52.4,24.7z"/>
		<path class="st0" d="M85.2,7.5c-0.1,1.5-0.4,2.7-0.7,4c-8.3-2.1-12.2,2.7-11.8,7.5c0.4,4.4,4.7,8,11.5,5.7
			c0.3,1.1,0.8,2.4,0.9,3.6c-8.7,4-17.2-1.1-17.9-9.1C66.7,10.2,74.4,4.6,85.2,7.5z"/>
		<path class="st0" d="M138.1,7.9c-0.3,1.7-0.4,2.3-0.7,3.9c-2.8-0.4-10.8-2.4-10.7,0.7c0.3,4.4,15.1,3.9,11.9,12.7
			c-2,5.3-12.3,5.3-17.9,2.3c0.3-1.2,0.4-2.1,1.1-3.6c3.1,0.7,11.8,3.2,11.8-0.7c0-2.9-9.2-4-11.1-6.8
			C117.7,9.1,127.4,4.3,138.1,7.9z"/>
	</g>
</g>
<g>
	<g>
		<path class="st1" d="M102.2,13.4c-0.1-2.9,2.4-6.1,6.1-6.1c3.3,0,6,2.8,6.1,6.1c0,3.2-2.7,6.6-6.7,6.3
			C105.2,19.4,102.1,17.1,102.2,13.4z"/>
		<path class="st1" d="M118.8,16.8v2.5c0,0.1,0,0.4,0,0.5s0,0.3,0,0.4c-0.1,1.2-0.5,2.4-1.1,3.5c-0.4,0.9-0.9,1.6-1.6,2.3
			c-0.1,0.1-0.1,0.1-0.3,0.3c-0.1,0.1-0.3,0.3-0.4,0.4c0,0-0.1,0-0.1,0.1c-0.8,0.7-1.6,1.1-2.5,1.6c-0.8,0.4-1.6,0.5-2.5,0.8l0,0
			l0,0l0,0l0,0c0,0,0,0-0.1,0c0,0,0,0-0.1,0c0,0,0,0-0.1,0l0,0l0,0c0,0-0.1,0-0.1-0.1c0-1.5,0-2.9,0-4.4c0-0.1,0-0.1,0.1-0.3
			c0,0,0.1,0,0.3,0l0,0l0,0c0.1,0,0.3,0,0.3,0l0,0c0.8-0.1,1.6-0.4,2.3-0.8c1.1-0.7,1.9-1.6,2.5-2.7c0-0.1,0.1-0.1,0.1-0.3
			c0.1-0.3,0.3-0.4,0.3-0.7c0.1-0.3,0.3-0.5,0.3-0.8c0.1-0.4,0.3-0.8,0.3-1.1l0,0c0,0,0,0,0-0.1l0,0c-0.3,0.3-0.5,0.5-0.9,0.8
			c-1.1,0.8-2.3,1.3-3.6,1.6c0.8-0.4,1.5-0.9,2.1-1.5c0.8-0.7,1.3-1.6,1.6-2.7c0-0.1,0.1-0.1,0.3-0.1c0.9,0,1.9,0,2.7,0
			c0.1,0,0.1,0,0.1,0.1C118.8,16.3,118.8,16.6,118.8,16.8L118.8,16.8z"/>
		<path class="st1" d="M105,20.3c-1.7-0.3-3.3-1.1-4.5-2.4c0.5,2,1.2,4,2.9,5.3c1.1,0.8,2.1,1.2,3.5,1.3c0.1,0,0.1,0,0.1,0.1
			c0,1.5,0,2.9,0,4.4c0,0.1,0,0.3-0.1,0.1c-1.6-0.4-3.2-0.8-4.7-1.7c-1.7-1.2-2.9-2.8-3.6-4.8c-0.5-1.6-0.8-3.2-0.8-4.9
			c0-0.5,0.1-1.1,0.1-1.6c0-0.1,0.1-0.3,0.3-0.3c0.9,0,1.7,0,2.7,0c0.1,0,0.1,0,0.1,0.1c0.4,1.3,1.2,2.4,2.3,3.2
			C104,19.7,104.5,19.9,105,20.3z"/>
		<path class="st1" d="M117.2,14.7c-0.4,0-0.8,0-1.2,0c-0.1,0-0.3,0-0.3-0.3c0.1-1.3,0-2.7-0.5-3.9c-0.5-1.3-1.3-2.5-2.7-3.2
			c-0.1-0.1-0.3-0.1-0.3-0.4c0-1.5,0-2.9,0-4.4c0-0.1,0-0.3,0.3-0.1c1.9,1.1,3.3,2.3,4.5,4c0.9,1.5,1.5,3.2,1.6,4.9
			c0.1,0.9,0.1,2,0,2.9c0,0.1,0,0.1-0.3,0.1C118,14.7,117.6,14.7,117.2,14.7L117.2,14.7z"/>
		<path class="st1" d="M104,5c0,0.7,0,1.5,0,2.1c0,0.1,0,0.3-0.3,0.4c-1.9,1.1-2.7,2.8-2.9,4.8c0,0.7,0,1.3,0,1.9
			c0,0.1,0,0.3-0.3,0.3c-0.8,0-1.7,0-2.5,0c-0.1,0-0.3,0-0.3-0.3c0-1.1-0.1-2.1,0-3.2c0.3-2.3,0.9-4.3,2.4-6
			c0.8-1.1,1.9-1.7,3.1-2.4c0.5-0.3,0.5-0.3,0.5,0.3C104,3.6,104,4.3,104,5z"/>
		<path class="st1" d="M106.4,24.5c0,0,2,0.3,4,0l-0.3,4.8c0,0-1.6,0.4-3.7,0V24.5z"/>
	</g>
	<path class="st1" d="M118.8,16.8v12.6h-3.5v-7.5c0.1-0.3,0.3-0.7,0.3-0.9c0.1-0.4,0.3-0.8,0.3-1.2c0.1-0.5,0.3-1.1,0.3-1.5
		c0,0,0,0,0-0.1s0-0.1,0-0.3l0,0l0,0c0,0,0,0,0-0.1l0,0c-0.3,0.3-0.5,0.5-0.9,0.8v-0.5c0.1-0.4,0.3-0.8,0.4-1.2L118.8,16.8
		L118.8,16.8z"/>
</g>
</svg>
